<svg width="1440" height="1024" viewBox="0 0 1440 1024" fill="none" xmlns="http://www.w3.org/2000/svg">
<g clip-path="url(#clip0_16_29)">
<rect width="1440" height="1024" fill="#D2D2D2"/>
<rect width="1440" height="1024" fill="#68B85E"/>
<path opacity="0.9" d="M638.611 809C646.661 796.062 642.08 783.529 635.275 775.039C633.264 772.954 642.738 777.916 648.82 785.869C649.533 786.801 653.6 786.116 653.914 784.986C656.243 776.603 660.796 765.871 660.227 768.368C658.937 774.028 659.667 789.715 662.762 792.626C666.632 796.264 678.241 788.785 674.104 768.368C673.704 764.729 684.539 794.445 681.443 809" stroke="black" stroke-width="4" stroke-linecap="round"/>
<path opacity="0.9" d="M287.611 560.911C295.661 547.974 291.08 535.44 284.275 526.95C282.264 524.865 291.738 529.828 297.82 537.78C298.533 538.712 302.6 538.028 302.914 536.897C305.243 528.514 309.796 517.783 309.227 520.279C307.937 525.939 308.667 541.626 311.762 544.537C315.632 548.176 327.241 540.696 323.104 520.279C322.704 516.64 333.539 546.357 330.443 560.911" stroke="black" stroke-width="4" stroke-linecap="round"/>
<path opacity="0.9" d="M1187.08 184.911C1180.57 175.129 1184.28 165.653 1189.78 159.233C1191.31 157.748 1184.59 160.995 1179.7 166.407C1178.92 167.27 1174.64 166.499 1174.28 165.392C1172.33 159.322 1169.18 152.435 1169.6 154.189C1170.65 158.469 1170.06 170.33 1167.55 172.531C1164.43 175.282 1155.04 169.627 1158.38 154.189C1158.71 151.438 1149.95 173.906 1152.45 184.911" stroke="black" stroke-width="4" stroke-linecap="round"/>
<path opacity="0.9" d="M1098.08 532.911C1091.57 523.129 1095.28 513.653 1100.78 507.233C1102.31 505.748 1095.59 508.995 1090.7 514.407C1089.92 515.27 1085.64 514.499 1085.28 513.392C1083.33 507.322 1080.18 500.435 1080.6 502.189C1081.65 506.469 1081.06 518.33 1078.55 520.531C1075.43 523.282 1066.04 517.627 1069.38 502.189C1069.71 499.438 1060.95 521.906 1063.45 532.911" stroke="black" stroke-width="4" stroke-linecap="round"/>
<path opacity="0.9" d="M877.081 297C870.572 287.218 874.276 277.741 879.778 271.322C881.31 269.836 874.594 273.084 869.7 278.496C868.919 279.359 864.642 278.588 864.285 277.48C862.326 271.41 859.176 264.524 859.604 266.278C860.647 270.558 860.057 282.419 857.554 284.619C854.425 287.371 845.04 281.715 848.384 266.278C848.708 263.527 839.947 285.995 842.45 297" stroke="black" stroke-width="4" stroke-linecap="round"/>
<path opacity="0.9" d="M1135 341C1140.49 338.019 1149.19 328.478 1140 314.167C1138 311.931 1150.23 316.602 1155.23 323.36C1156.7 325.348 1152.78 310.987 1158.98 298.267C1160.55 295.037 1157.58 322.167 1161.97 325.348C1163.35 326.341 1166.62 323.509 1166.22 318.143C1165.72 311.434 1170.46 331.559 1166.22 339.261" stroke="black" stroke-width="4" stroke-linecap="round"/>
<path opacity="0.9" d="M344 695C349.495 692.019 358.186 682.478 348.995 668.167C346.997 665.931 359.235 670.602 364.23 677.36C365.699 679.348 361.782 664.987 367.976 652.267C369.549 649.037 366.578 676.167 370.973 679.348C372.347 680.341 375.619 677.509 375.219 672.143C374.72 665.434 379.465 685.559 375.219 693.261" stroke="black" stroke-width="4" stroke-linecap="round"/>
<path opacity="0.9" d="M230 370C225.005 367.296 217.104 358.643 225.459 345.663C227.275 343.635 216.15 347.872 211.609 354.001C210.273 355.804 213.834 342.779 208.203 331.242C206.774 328.312 209.475 352.919 205.479 355.804C204.23 356.705 201.256 354.136 201.619 349.269C202.073 343.185 197.759 361.437 201.619 368.423" stroke="black" stroke-width="4" stroke-linecap="round"/>
<path opacity="0.9" d="M452 247C447.005 244.296 439.104 235.643 447.459 222.663C449.275 220.635 438.15 224.872 433.609 231.001C432.273 232.804 435.834 219.779 430.203 208.242C428.774 205.312 431.475 229.919 427.479 232.804C426.23 233.705 423.256 231.136 423.619 226.269C424.073 220.185 419.759 238.437 423.619 245.423" stroke="black" stroke-width="4" stroke-linecap="round"/>
<g opacity="0.9">
<circle cx="1075.01" cy="287.012" r="2.1397" transform="rotate(20.1477 1075.01 287.012)" fill="#B85E5E" stroke="black" stroke-width="4"/>
<circle cx="1078.55" cy="277.373" r="6.445" transform="rotate(20.1477 1078.55 277.373)" fill="#A63A44" stroke="black" stroke-width="4"/>
<circle cx="1071.48" cy="296.65" r="6.445" transform="rotate(20.1477 1071.48 296.65)" fill="#A63A44" stroke="black" stroke-width="4"/>
<circle cx="1084.65" cy="290.547" r="6.445" transform="rotate(110.148 1084.65 290.547)" fill="#A63A44" stroke="black" stroke-width="4"/>
<circle cx="1065.37" cy="283.475" r="6.445" transform="rotate(110.148 1065.37 283.475)" fill="#A63A44" stroke="black" stroke-width="4"/>
</g>
<g opacity="0.9">
<circle cx="1171.01" cy="688.011" r="2.1397" transform="rotate(20.1477 1171.01 688.011)" fill="#B85E5E" stroke="black" stroke-width="4"/>
<circle cx="1174.55" cy="678.373" r="6.445" transform="rotate(20.1477 1174.55 678.373)" fill="#A63A44" stroke="black" stroke-width="4"/>
<circle cx="1167.48" cy="697.65" r="6.445" transform="rotate(20.1477 1167.48 697.65)" fill="#A63A44" stroke="black" stroke-width="4"/>
<circle cx="1180.65" cy="691.547" r="6.445" transform="rotate(110.148 1180.65 691.547)" fill="#A63A44" stroke="black" stroke-width="4"/>
<circle cx="1161.37" cy="684.475" r="6.445" transform="rotate(110.148 1161.37 684.475)" fill="#A63A44" stroke="black" stroke-width="4"/>
</g>
<g opacity="0.9">
<circle cx="939.093" cy="159.594" r="2.1397" transform="rotate(20.1477 939.093 159.594)" fill="#B85E5E" stroke="black" stroke-width="4"/>
<circle cx="942.629" cy="149.955" r="6.445" transform="rotate(20.1477 942.629 149.955)" fill="#A63A44" stroke="black" stroke-width="4"/>
<circle cx="935.557" cy="169.232" r="6.445" transform="rotate(20.1477 935.557 169.232)" fill="#A63A44" stroke="black" stroke-width="4"/>
<circle cx="948.731" cy="163.13" r="6.445" transform="rotate(110.148 948.731 163.13)" fill="#A63A44" stroke="black" stroke-width="4"/>
<circle cx="929.455" cy="156.058" r="6.445" transform="rotate(110.148 929.455 156.058)" fill="#A63A44" stroke="black" stroke-width="4"/>
</g>
<g opacity="0.9">
<circle cx="847.749" cy="646.75" r="2.71043" transform="rotate(67.84 847.749 646.75)" fill="#B85E5E" stroke="black" stroke-width="4"/>
<circle cx="858.568" cy="642.343" r="7.60927" transform="rotate(67.84 858.568 642.343)" fill="#A64F3A" stroke="black" stroke-width="4"/>
<circle cx="836.93" cy="651.156" r="7.60927" transform="rotate(67.84 836.93 651.156)" fill="#A64F3A" stroke="black" stroke-width="4"/>
<circle cx="852.156" cy="657.568" r="7.60927" transform="rotate(157.84 852.156 657.568)" fill="#A64F3A" stroke="black" stroke-width="4"/>
<circle cx="843.343" cy="635.93" r="7.60927" transform="rotate(157.84 843.343 635.93)" fill="#A64F3A" stroke="black" stroke-width="4"/>
</g>
<g opacity="0.9">
<circle cx="381.685" cy="389.685" r="2.25587" transform="rotate(20.1477 381.685 389.685)" fill="#B85E5E" stroke="black" stroke-width="4"/>
<circle cx="385.321" cy="379.777" r="6.68196" transform="rotate(20.1477 385.321 379.777)" fill="#A4A63A" stroke="black" stroke-width="4"/>
<circle cx="378.05" cy="399.594" r="6.68196" transform="rotate(20.1477 378.05 399.594)" fill="#A4A63A" stroke="black" stroke-width="4"/>
<circle cx="391.594" cy="393.321" r="6.68196" transform="rotate(110.148 391.594 393.321)" fill="#A4A63A" stroke="black" stroke-width="4"/>
<circle cx="371.777" cy="386.05" r="6.68196" transform="rotate(110.148 371.777 386.05)" fill="#A4A63A" stroke="black" stroke-width="4"/>
</g>
<g opacity="0.9">
<circle cx="695.685" cy="410.685" r="2.25587" transform="rotate(20.1477 695.685 410.685)" fill="#B85E5E" stroke="black" stroke-width="4"/>
<circle cx="699.321" cy="400.777" r="6.68196" transform="rotate(20.1477 699.321 400.777)" fill="#A4A63A" stroke="black" stroke-width="4"/>
<circle cx="692.05" cy="420.594" r="6.68196" transform="rotate(20.1477 692.05 420.594)" fill="#A4A63A" stroke="black" stroke-width="4"/>
<circle cx="705.594" cy="414.321" r="6.68196" transform="rotate(110.148 705.594 414.321)" fill="#A4A63A" stroke="black" stroke-width="4"/>
<circle cx="685.777" cy="407.05" r="6.68196" transform="rotate(110.148 685.777 407.05)" fill="#A4A63A" stroke="black" stroke-width="4"/>
</g>
<g opacity="0.9">
<circle cx="1035.01" cy="788.014" r="2.16225" transform="rotate(115.075 1035.01 788.014)" fill="#B85E5E" stroke="black" stroke-width="4"/>
<circle cx="1044.36" cy="792.388" r="6.491" transform="rotate(115.075 1044.36 792.388)" fill="#A63A80" stroke="black" stroke-width="4"/>
<circle cx="1025.66" cy="783.639" r="6.491" transform="rotate(115.075 1025.66 783.639)" fill="#A63A80" stroke="black" stroke-width="4"/>
<circle cx="1030.64" cy="797.363" r="6.491" transform="rotate(-154.925 1030.64 797.363)" fill="#A63A80" stroke="black" stroke-width="4"/>
<circle cx="1039.39" cy="778.664" r="6.491" transform="rotate(-154.925 1039.39 778.664)" fill="#A63A80" stroke="black" stroke-width="4"/>
</g>
<g opacity="0.9">
<circle cx="425.579" cy="843.2" r="2.82422" transform="rotate(57.8632 425.579 843.2)" fill="#B85E5E" stroke="black" stroke-width="4"/>
<circle cx="435.71" cy="836.836" r="7.8414" transform="rotate(57.8632 435.71 836.836)" fill="#3A89A6" stroke="black" stroke-width="4"/>
<circle cx="415.448" cy="849.564" r="7.8414" transform="rotate(57.8632 415.448 849.564)" fill="#3A89A6" stroke="black" stroke-width="4"/>
<circle cx="431.944" cy="853.331" r="7.8414" transform="rotate(147.863 431.944 853.331)" fill="#3A89A6" stroke="black" stroke-width="4"/>
<circle cx="419.215" cy="833.069" r="7.8414" transform="rotate(147.863 419.215 833.069)" fill="#3A89A6" stroke="black" stroke-width="4"/>
</g>
<g opacity="0.9">
<circle cx="182.305" cy="520.612" r="2.12109" transform="rotate(82.8719 182.305 520.612)" fill="#B85E5E" stroke="black" stroke-width="4"/>
<circle cx="192.446" cy="519.344" r="6.40702" transform="rotate(82.8719 192.446 519.344)" fill="#3A89A6" stroke="black" stroke-width="4"/>
<circle cx="172.163" cy="521.88" r="6.40702" transform="rotate(82.8719 172.163 521.88)" fill="#3A89A6" stroke="black" stroke-width="4"/>
<circle cx="183.573" cy="530.753" r="6.40702" transform="rotate(172.872 183.573 530.753)" fill="#3A89A6" stroke="black" stroke-width="4"/>
<circle cx="181.036" cy="510.47" r="6.40702" transform="rotate(172.872 181.036 510.47)" fill="#3A89A6" stroke="black" stroke-width="4"/>
</g>
<path opacity="0.9" d="M1295.5 482C1304.97 482 1312 488.324 1312 495.39C1312 497.151 1311.54 498.034 1311.02 498.549C1310.45 499.115 1309.48 499.548 1307.9 499.786C1306.32 500.023 1304.39 500.03 1302.11 499.964C1299.89 499.899 1297.32 499.764 1294.73 499.764C1292.14 499.764 1289.66 499.899 1287.59 499.964C1285.44 500.03 1283.73 500.021 1282.37 499.792C1281.02 499.566 1280.28 499.166 1279.84 498.661C1279.41 498.16 1279 497.241 1279 495.39C1279 488.324 1286.03 482 1295.5 482Z" fill="#A89A9A" stroke="black" stroke-width="4"/>
<path opacity="0.9" d="M535.5 603C544.973 603 552 609.324 552 616.39C552 618.151 551.542 619.034 551.021 619.549C550.447 620.115 549.485 620.548 547.899 620.786C546.322 621.023 544.39 621.03 542.108 620.964C539.889 620.899 537.32 620.764 534.729 620.764C532.135 620.764 529.664 620.899 527.587 620.964C525.444 621.03 523.726 621.021 522.365 620.792C521.02 620.566 520.281 620.166 519.844 619.661C519.41 619.16 519 618.241 519 616.39C519 609.324 526.027 603 535.5 603Z" fill="#A89A9A" stroke="black" stroke-width="4"/>
<path opacity="0.9" d="M810.5 772C821.596 772 830 779.549 830 788.188C830 790.345 829.445 791.497 828.753 792.191C828.015 792.933 826.82 793.459 824.953 793.744C823.092 794.028 820.824 794.036 818.172 793.957C815.583 793.88 812.61 793.721 809.604 793.721C806.595 793.721 803.735 793.88 801.312 793.957C798.822 794.036 796.8 794.026 795.187 793.75C793.593 793.477 792.652 792.985 792.071 792.305C791.489 791.623 791 790.434 791 788.188C791 779.549 799.404 772 810.5 772Z" fill="#A89A9A" stroke="black" stroke-width="4"/>
<path opacity="0.9" d="M925 423C931.299 423 936.909 424.657 940.883 427.231C944.877 429.818 947 433.157 947 436.546C947 438.23 946.491 439.389 945.658 440.273C944.776 441.209 943.388 441.985 941.401 442.575C937.38 443.77 931.666 444 925 444C918.334 444 912.62 443.77 908.599 442.575C906.612 441.985 905.224 441.209 904.342 440.273C903.509 439.389 903 438.23 903 436.546C903 433.157 905.123 429.818 909.117 427.231C913.091 424.657 918.701 423 925 423Z" fill="#A89A9A" stroke="black" stroke-width="4"/>
<path opacity="0.9" d="M600 257C606.299 257 611.909 258.657 615.883 261.231C619.877 263.818 622 267.157 622 270.546C622 272.23 621.491 273.389 620.658 274.273C619.776 275.209 618.388 275.985 616.401 276.575C612.38 277.77 606.666 278 600 278C593.334 278 587.62 277.77 583.599 276.575C581.612 275.985 580.224 275.209 579.342 274.273C578.509 273.389 578 272.23 578 270.546C578 267.157 580.123 263.818 584.117 261.231C588.091 258.657 593.701 257 600 257Z" fill="#A89A9A" stroke="black" stroke-width="4"/>
</g>
<defs>
<clipPath id="clip0_16_29">
<rect width="1440" height="1024" fill="white"/>
</clipPath>
</defs>
</svg>
