<svg width="353" height="435" viewBox="0 0 353 435" fill="none" xmlns="http://www.w3.org/2000/svg">
<mask id="path-1-inside-1_8_3" fill="white">
<path d="M85 96.2203C98.4212 96.2203 109.661 105.553 112.589 118.082C115.609 116.984 118.868 116.385 122.268 116.385C137.916 116.386 150.601 129.071 150.601 144.719C150.601 148.893 149.697 152.855 148.077 156.422C160.637 159.328 170 170.585 170 184.028C170 197.798 160.176 209.272 147.154 211.828C149.351 215.853 150.601 220.47 150.601 225.38C150.601 241.027 137.916 253.712 122.268 253.713C117.794 253.713 113.563 252.674 109.801 250.828C104.97 259.549 95.6758 265.455 85 265.455C74.1583 265.455 64.7402 259.365 59.9766 250.42C56.0189 252.52 51.505 253.712 46.7119 253.713C31.0638 253.713 18.3779 241.028 18.3779 225.38C18.378 220.392 19.6681 215.706 21.9307 211.635C9.3664 208.733 0 197.474 0 184.028C0.00013218 170.913 8.91074 159.881 21.0078 156.652C19.3213 153.025 18.378 148.983 18.3779 144.719C18.3779 129.071 31.0638 116.385 46.7119 116.385C50.4665 116.385 54.0499 117.118 57.3291 118.444C60.123 105.733 71.4497 96.2203 85 96.2203Z"/>
</mask>
<path d="M85 96.2203C98.4212 96.2203 109.661 105.553 112.589 118.082C115.609 116.984 118.868 116.385 122.268 116.385C137.916 116.386 150.601 129.071 150.601 144.719C150.601 148.893 149.697 152.855 148.077 156.422C160.637 159.328 170 170.585 170 184.028C170 197.798 160.176 209.272 147.154 211.828C149.351 215.853 150.601 220.47 150.601 225.38C150.601 241.027 137.916 253.712 122.268 253.713C117.794 253.713 113.563 252.674 109.801 250.828C104.97 259.549 95.6758 265.455 85 265.455C74.1583 265.455 64.7402 259.365 59.9766 250.42C56.0189 252.52 51.505 253.712 46.7119 253.713C31.0638 253.713 18.3779 241.028 18.3779 225.38C18.378 220.392 19.6681 215.706 21.9307 211.635C9.3664 208.733 0 197.474 0 184.028C0.00013218 170.913 8.91074 159.881 21.0078 156.652C19.3213 153.025 18.378 148.983 18.3779 144.719C18.3779 129.071 31.0638 116.385 46.7119 116.385C50.4665 116.385 54.0499 117.118 57.3291 118.444C60.123 105.733 71.4497 96.2203 85 96.2203Z" fill="#306B31"/>
<path d="M112.589 118.082L106.746 119.447L108.285 126.03L114.638 123.721L112.589 118.082ZM122.268 116.385L122.268 110.385H122.268V116.385ZM150.601 144.719L156.601 144.719V144.719H150.601ZM148.077 156.422L142.614 153.941L139.583 160.616L146.725 162.268L148.077 156.422ZM170 184.028H176V184.028L170 184.028ZM147.154 211.828L145.999 205.94L137.967 207.517L141.887 214.702L147.154 211.828ZM150.601 225.38H156.601V225.379L150.601 225.38ZM122.268 253.713V259.713H122.268L122.268 253.713ZM109.801 250.828L112.444 245.442L107.318 242.926L104.552 247.921L109.801 250.828ZM59.9766 250.42L65.2724 247.599L62.4559 242.31L57.1633 245.12L59.9766 250.42ZM46.7119 253.713V259.713H46.712L46.7119 253.713ZM18.3779 225.38L12.3779 225.379V225.38H18.3779ZM21.9307 211.635L27.175 214.55L31.0474 207.583L23.281 205.789L21.9307 211.635ZM0 184.028L-6 184.028V184.028H0ZM21.0078 156.652L22.5551 162.449L29.4632 160.605L26.4483 154.122L21.0078 156.652ZM18.3779 144.719H12.3779V144.719L18.3779 144.719ZM46.7119 116.385L46.712 110.385H46.7119V116.385ZM57.3291 118.444L55.0793 124.006L61.6643 126.67L63.1892 119.732L57.3291 118.444ZM85 96.2203V102.22C95.5707 102.22 104.438 109.571 106.746 119.447L112.589 118.082L118.431 116.716C114.884 101.534 101.272 90.2203 85 90.2203V96.2203ZM112.589 118.082L114.638 123.721C117.011 122.859 119.578 122.385 122.268 122.385V116.385V110.385C118.159 110.385 114.207 111.11 110.539 112.443L112.589 118.082ZM122.268 116.385L122.268 122.385C134.602 122.386 144.601 132.385 144.601 144.719H150.601H156.601C156.601 125.758 141.229 110.386 122.268 110.385L122.268 116.385ZM150.601 144.719L144.601 144.719C144.601 148.019 143.888 151.137 142.614 153.941L148.077 156.422L153.54 158.904C155.507 154.573 156.601 149.766 156.601 144.719L150.601 144.719ZM148.077 156.422L146.725 162.268C156.625 164.558 164 173.439 164 184.028L170 184.028L176 184.028C176 167.73 164.65 154.097 149.429 150.577L148.077 156.422ZM170 184.028H164C164 194.875 156.261 203.926 145.999 205.94L147.154 211.828L148.31 217.715C164.091 214.618 176 200.722 176 184.028H170ZM147.154 211.828L141.887 214.702C143.616 217.869 144.601 221.501 144.601 225.38L150.601 225.38L156.601 225.379C156.601 219.44 155.086 213.838 152.421 208.954L147.154 211.828ZM150.601 225.38H144.601C144.601 237.714 134.602 247.712 122.268 247.713L122.268 253.713L122.268 259.713C141.229 259.712 156.601 244.341 156.601 225.38H150.601ZM122.268 253.713V247.713C118.732 247.713 115.403 246.894 112.444 245.442L109.801 250.828L107.157 256.214C111.723 258.455 116.856 259.713 122.268 259.713V253.713ZM109.801 250.828L104.552 247.921C100.736 254.812 93.4061 259.455 85 259.455V265.455V271.455C97.9454 271.455 109.205 264.287 115.05 253.735L109.801 250.828ZM85 265.455V259.455C76.4631 259.455 69.0357 254.666 65.2724 247.599L59.9766 250.42L54.6807 253.24C60.4447 264.063 71.8536 271.455 85 271.455V265.455ZM59.9766 250.42L57.1633 245.12C54.0493 246.773 50.4987 247.712 46.7119 247.713L46.7119 253.713L46.712 259.713C52.5113 259.712 57.9884 258.268 62.7898 255.719L59.9766 250.42ZM46.7119 253.713V247.713C34.3773 247.713 24.3779 237.714 24.3779 225.38H18.3779H12.3779C12.3779 244.342 27.7504 259.713 46.7119 259.713V253.713ZM18.3779 225.38L24.3779 225.38C24.3779 221.439 25.3947 217.753 27.175 214.55L21.9307 211.635L16.6863 208.72C13.9416 213.659 12.378 219.345 12.3779 225.379L18.3779 225.38ZM21.9307 211.635L23.281 205.789C13.3782 203.502 6 194.619 6 184.028H0H-6C-6 200.329 5.35458 213.964 20.5803 217.481L21.9307 211.635ZM0 184.028L6 184.028C6.0001 173.699 13.0175 164.995 22.5551 162.449L21.0078 156.652L19.4605 150.855C4.80402 154.767 -5.99984 168.127 -6 184.028L0 184.028ZM21.0078 156.652L26.4483 154.122C25.122 151.27 24.378 148.089 24.3779 144.719L18.3779 144.719L12.3779 144.719C12.378 149.876 13.5205 154.781 15.5673 159.182L21.0078 156.652ZM18.3779 144.719H24.3779C24.3779 132.385 34.3776 122.385 46.7119 122.385V116.385V110.385C27.7501 110.385 12.3779 125.758 12.3779 144.719H18.3779ZM46.7119 116.385L46.7119 122.385C49.6802 122.385 52.5008 122.963 55.0793 124.006L57.3291 118.444L59.5789 112.882C55.5991 111.272 51.2528 110.385 46.712 110.385L46.7119 116.385ZM57.3291 118.444L63.1892 119.732C65.3913 109.713 74.3273 102.22 85 102.22V96.2203V90.2203C68.5722 90.2203 54.8547 101.752 51.469 117.156L57.3291 118.444Z" fill="black" mask="url(#path-1-inside-1_8_3)"/>
<mask id="path-3-inside-2_8_3" fill="white">
<path d="M120.649 34.5067C134.897 28.1773 151.568 34.552 157.972 48.7438C160.844 44.4883 164.905 40.9603 169.943 38.7225C184.243 32.37 200.987 38.8135 207.339 53.1142C208.836 56.4833 209.62 59.9882 209.761 63.4605C219.989 64.0759 229.529 70.2353 233.976 80.2465C239.566 92.8312 235.246 107.305 224.383 114.927C228.025 117.714 231.041 121.426 233.034 125.913C239.387 140.213 232.943 156.955 218.643 163.308C214.554 165.124 210.266 165.893 206.079 165.733C205.205 175.664 199.108 184.834 189.351 189.168C179.443 193.57 168.364 191.827 160.379 185.586C157.615 189.113 153.974 192.035 149.593 193.981C135.293 200.333 118.55 193.891 112.197 179.59C110.172 175.032 109.449 170.226 109.864 165.587C97.2037 168.035 84.0731 161.548 78.6145 149.26C72.6596 135.854 77.9493 120.302 90.4154 113.176C88.8694 111.273 87.5452 109.139 86.5024 106.791C80.1499 92.4909 86.5928 75.7478 100.893 69.3952C102.194 68.8175 103.515 68.3457 104.846 67.976C101.134 54.6613 107.64 40.2853 120.649 34.5067Z"/>
</mask>
<path d="M120.649 34.5067C134.897 28.1773 151.568 34.552 157.972 48.7438C160.844 44.4883 164.905 40.9603 169.943 38.7225C184.243 32.37 200.987 38.8135 207.339 53.1142C208.836 56.4833 209.62 59.9882 209.761 63.4605C219.989 64.0759 229.529 70.2353 233.976 80.2465C239.566 92.8312 235.246 107.305 224.383 114.927C228.025 117.714 231.041 121.426 233.034 125.913C239.387 140.213 232.943 156.955 218.643 163.308C214.554 165.124 210.266 165.893 206.079 165.733C205.205 175.664 199.108 184.834 189.351 189.168C179.443 193.57 168.364 191.827 160.379 185.586C157.615 189.113 153.974 192.035 149.593 193.981C135.293 200.333 118.55 193.891 112.197 179.59C110.172 175.032 109.449 170.226 109.864 165.587C97.2037 168.035 84.0731 161.548 78.6145 149.26C72.6596 135.854 77.9493 120.302 90.4154 113.176C88.8694 111.273 87.5452 109.139 86.5024 106.791C80.1499 92.4909 86.5928 75.7478 100.893 69.3952C102.194 68.8175 103.515 68.3457 104.846 67.976C101.134 54.6613 107.64 40.2853 120.649 34.5067Z" fill="#2F5F30"/>
<path d="M157.972 48.7438L152.503 51.2118L156.928 61.0171L162.946 52.1L157.972 48.7438ZM169.943 38.7225L167.507 33.2392L167.507 33.2392L169.943 38.7225ZM207.339 53.1142L212.823 50.6785L212.823 50.6784L207.339 53.1142ZM209.761 63.4605L203.766 63.7035L203.985 69.1239L209.4 69.4497L209.761 63.4605ZM233.976 80.2465L239.459 77.8107L239.459 77.8107L233.976 80.2465ZM224.383 114.927L220.937 110.015L214.236 114.717L220.736 119.692L224.383 114.927ZM233.034 125.913L238.517 123.477L238.517 123.477L233.034 125.913ZM218.643 163.308L221.079 168.791L221.079 168.791L218.643 163.308ZM206.079 165.733L206.308 159.737L200.602 159.519L200.102 165.207L206.079 165.733ZM160.379 185.586L164.074 180.859L159.353 177.169L155.656 181.885L160.379 185.586ZM149.593 193.981L152.029 199.464L152.029 199.464L149.593 193.981ZM112.197 179.59L106.714 182.026L106.714 182.026L112.197 179.59ZM109.864 165.587L115.84 166.122L116.551 158.183L108.725 159.696L109.864 165.587ZM78.6145 149.26L73.1312 151.696L73.1312 151.696L78.6145 149.26ZM90.4154 113.176L93.3932 118.384L99.5295 114.876L95.0715 109.391L90.4154 113.176ZM86.5024 106.791L81.019 109.227L81.0191 109.227L86.5024 106.791ZM100.893 69.3952L98.4574 63.9119L98.4573 63.9119L100.893 69.3952ZM104.846 67.976L106.452 73.7571L112.238 72.1497L110.625 66.3647L104.846 67.976ZM120.649 34.5067L123.084 39.9901C134.315 35.0014 147.455 40.0253 152.503 51.2118L157.972 48.7438L163.441 46.2757C155.681 29.0787 135.48 21.3532 118.213 29.0234L120.649 34.5067ZM157.972 48.7438L162.946 52.1C165.207 48.7493 168.401 45.973 172.379 44.2058L169.943 38.7225L167.507 33.2392C161.41 35.9476 156.481 40.2274 152.999 45.3875L157.972 48.7438ZM169.943 38.7225L172.378 44.2059C183.651 39.1986 196.849 44.2777 201.856 55.5499L207.339 53.1142L212.823 50.6784C205.125 33.3494 184.836 25.5414 167.507 33.2392L169.943 38.7225ZM207.339 53.1142L201.856 55.5498C203.039 58.2133 203.655 60.9728 203.766 63.7035L209.761 63.4605L215.756 63.2176C215.585 59.0035 214.633 54.7532 212.823 50.6785L207.339 53.1142ZM209.761 63.4605L209.4 69.4497C217.48 69.9358 224.991 74.7993 228.493 82.6823L233.976 80.2465L239.459 77.8107C234.067 65.6714 222.499 58.216 210.121 57.4714L209.761 63.4605ZM233.976 80.2465L228.493 82.6823C232.896 92.595 229.497 104.009 220.937 110.015L224.383 114.927L227.829 119.839C240.994 110.601 246.236 93.0673 239.459 77.8107L233.976 80.2465ZM224.383 114.927L220.736 119.692C223.602 121.884 225.976 124.804 227.551 128.349L233.034 125.913L238.517 123.477C236.106 118.049 232.448 113.544 228.03 110.162L224.383 114.927ZM233.034 125.913L227.551 128.348C232.558 139.621 227.479 152.817 216.207 157.825L218.643 163.308L221.079 168.791C238.407 161.094 246.215 140.806 238.517 123.477L233.034 125.913ZM218.643 163.308L216.207 157.825C212.976 159.26 209.602 159.863 206.308 159.737L206.079 165.733L205.849 171.728C210.931 171.923 216.133 170.988 221.079 168.791L218.643 163.308ZM206.079 165.733L200.102 165.207C199.411 173.054 194.598 180.272 186.916 183.685L189.351 189.168L191.787 194.652C203.618 189.396 210.998 178.274 212.055 166.259L206.079 165.733ZM189.351 189.168L186.916 183.685C179.114 187.151 170.382 185.789 164.074 180.859L160.379 185.586L156.684 190.314C166.346 197.865 179.773 199.989 191.787 194.652L189.351 189.168ZM160.379 185.586L155.656 181.885C153.482 184.66 150.618 186.96 147.158 188.497L149.593 193.981L152.029 199.464C157.329 197.11 161.748 193.566 165.101 189.288L160.379 185.586ZM149.593 193.981L147.158 188.497C135.885 193.505 122.688 188.426 117.68 177.154L112.197 179.59L106.714 182.026C114.412 199.355 134.7 207.162 152.029 199.464L149.593 193.981ZM112.197 179.59L117.68 177.154C116.081 173.553 115.514 169.772 115.84 166.122L109.864 165.587L103.888 165.052C103.385 170.679 104.264 176.511 106.714 182.026L112.197 179.59ZM109.864 165.587L108.725 159.696C98.7464 161.626 88.3975 156.503 84.0979 146.824L78.6145 149.26L73.1312 151.696C79.7488 166.593 95.6611 174.445 111.003 171.478L109.864 165.587ZM78.6145 149.26L84.0979 146.824C79.4055 136.261 83.5726 123.999 93.3932 118.384L90.4154 113.176L87.4376 107.967C72.326 116.606 65.9137 135.448 73.1312 151.696L78.6145 149.26ZM90.4154 113.176L95.0715 109.391C93.8546 107.894 92.8103 106.212 91.9857 104.356L86.5024 106.791L81.0191 109.227C82.2801 112.066 83.8843 114.653 85.7593 116.96L90.4154 113.176ZM86.5024 106.791L91.9857 104.356C86.9784 93.0834 92.0571 79.8858 103.329 74.8785L100.893 69.3952L98.4573 63.9119C81.1285 71.6098 73.3214 91.8985 81.019 109.227L86.5024 106.791ZM100.893 69.3952L103.329 74.8785C104.359 74.421 105.403 74.0485 106.452 73.7571L104.846 67.976L103.24 62.1948C101.627 62.643 100.028 63.2141 98.4574 63.9119L100.893 69.3952ZM104.846 67.976L110.625 66.3647C107.701 55.8747 112.836 44.5427 123.084 39.9901L120.649 34.5067L118.213 29.0234C102.445 36.0279 94.5668 53.4479 99.0662 69.5872L104.846 67.976Z" fill="black" mask="url(#path-3-inside-2_8_3)"/>
<mask id="path-5-inside-3_8_3" fill="white">
<path d="M268 96.2203C281.421 96.2203 292.661 105.553 295.589 118.082C298.609 116.984 301.868 116.385 305.268 116.385C320.916 116.386 333.601 129.071 333.601 144.719C333.601 148.893 332.697 152.855 331.077 156.422C343.637 159.328 353 170.585 353 184.028C353 197.798 343.176 209.272 330.154 211.828C332.351 215.853 333.601 220.47 333.601 225.38C333.601 241.027 320.916 253.712 305.268 253.713C300.794 253.713 296.563 252.674 292.801 250.828C287.97 259.549 278.676 265.455 268 265.455C257.158 265.455 247.74 259.365 242.977 250.42C239.019 252.52 234.505 253.712 229.712 253.713C214.064 253.713 201.378 241.028 201.378 225.38C201.378 220.392 202.668 215.706 204.931 211.635C192.366 208.733 183 197.474 183 184.028C183 170.913 191.911 159.881 204.008 156.652C202.321 153.025 201.378 148.983 201.378 144.719C201.378 129.071 214.064 116.385 229.712 116.385C233.467 116.385 237.05 117.118 240.329 118.444C243.123 105.733 254.45 96.2203 268 96.2203Z"/>
</mask>
<path d="M268 96.2203C281.421 96.2203 292.661 105.553 295.589 118.082C298.609 116.984 301.868 116.385 305.268 116.385C320.916 116.386 333.601 129.071 333.601 144.719C333.601 148.893 332.697 152.855 331.077 156.422C343.637 159.328 353 170.585 353 184.028C353 197.798 343.176 209.272 330.154 211.828C332.351 215.853 333.601 220.47 333.601 225.38C333.601 241.027 320.916 253.712 305.268 253.713C300.794 253.713 296.563 252.674 292.801 250.828C287.97 259.549 278.676 265.455 268 265.455C257.158 265.455 247.74 259.365 242.977 250.42C239.019 252.52 234.505 253.712 229.712 253.713C214.064 253.713 201.378 241.028 201.378 225.38C201.378 220.392 202.668 215.706 204.931 211.635C192.366 208.733 183 197.474 183 184.028C183 170.913 191.911 159.881 204.008 156.652C202.321 153.025 201.378 148.983 201.378 144.719C201.378 129.071 214.064 116.385 229.712 116.385C233.467 116.385 237.05 117.118 240.329 118.444C243.123 105.733 254.45 96.2203 268 96.2203Z" fill="#2F5F30"/>
<path d="M295.589 118.082L289.746 119.447L291.285 126.03L297.638 123.721L295.589 118.082ZM305.268 116.385L305.268 110.385H305.268V116.385ZM333.601 144.719L339.601 144.719V144.719H333.601ZM331.077 156.422L325.614 153.941L322.583 160.616L329.725 162.268L331.077 156.422ZM353 184.028H359V184.028L353 184.028ZM330.154 211.828L328.999 205.94L320.967 207.517L324.887 214.702L330.154 211.828ZM333.601 225.38H339.601V225.379L333.601 225.38ZM305.268 253.713V259.713H305.268L305.268 253.713ZM292.801 250.828L295.444 245.442L290.318 242.926L287.552 247.921L292.801 250.828ZM242.977 250.42L248.272 247.599L245.456 242.31L240.163 245.12L242.977 250.42ZM229.712 253.713V259.713H229.712L229.712 253.713ZM201.378 225.38L195.378 225.379V225.38H201.378ZM204.931 211.635L210.175 214.55L214.047 207.583L206.281 205.789L204.931 211.635ZM183 184.028L177 184.028V184.028H183ZM204.008 156.652L205.555 162.449L212.463 160.605L209.448 154.122L204.008 156.652ZM201.378 144.719H195.378V144.719L201.378 144.719ZM229.712 116.385L229.712 110.385H229.712V116.385ZM240.329 118.444L238.079 124.006L244.664 126.67L246.189 119.732L240.329 118.444ZM268 96.2203V102.22C278.571 102.22 287.438 109.571 289.746 119.447L295.589 118.082L301.431 116.716C297.884 101.534 284.272 90.2203 268 90.2203V96.2203ZM295.589 118.082L297.638 123.721C300.011 122.859 302.578 122.385 305.268 122.385V116.385V110.385C301.159 110.385 297.207 111.11 293.539 112.443L295.589 118.082ZM305.268 116.385L305.268 122.385C317.602 122.386 327.601 132.385 327.601 144.719H333.601H339.601C339.601 125.758 324.229 110.386 305.268 110.385L305.268 116.385ZM333.601 144.719L327.601 144.719C327.601 148.019 326.888 151.137 325.614 153.941L331.077 156.422L336.54 158.904C338.507 154.573 339.601 149.766 339.601 144.719L333.601 144.719ZM331.077 156.422L329.725 162.268C339.625 164.558 347 173.439 347 184.028L353 184.028L359 184.028C359 167.73 347.65 154.097 332.429 150.577L331.077 156.422ZM353 184.028H347C347 194.875 339.261 203.926 328.999 205.94L330.154 211.828L331.31 217.715C347.091 214.618 359 200.722 359 184.028H353ZM330.154 211.828L324.887 214.702C326.616 217.869 327.601 221.501 327.601 225.38L333.601 225.38L339.601 225.379C339.601 219.44 338.086 213.838 335.421 208.954L330.154 211.828ZM333.601 225.38H327.601C327.601 237.714 317.602 247.712 305.268 247.713L305.268 253.713L305.268 259.713C324.229 259.712 339.601 244.341 339.601 225.38H333.601ZM305.268 253.713V247.713C301.732 247.713 298.403 246.894 295.444 245.442L292.801 250.828L290.157 256.214C294.723 258.455 299.856 259.713 305.268 259.713V253.713ZM292.801 250.828L287.552 247.921C283.736 254.812 276.406 259.455 268 259.455V265.455V271.455C280.945 271.455 292.205 264.287 298.05 253.735L292.801 250.828ZM268 265.455V259.455C259.463 259.455 252.036 254.666 248.272 247.599L242.977 250.42L237.681 253.24C243.445 264.063 254.854 271.455 268 271.455V265.455ZM242.977 250.42L240.163 245.12C237.049 246.773 233.499 247.712 229.712 247.713L229.712 253.713L229.712 259.713C235.511 259.712 240.988 258.268 245.79 255.719L242.977 250.42ZM229.712 253.713V247.713C217.377 247.713 207.378 237.714 207.378 225.38H201.378H195.378C195.378 244.342 210.75 259.713 229.712 259.713V253.713ZM201.378 225.38L207.378 225.38C207.378 221.439 208.395 217.753 210.175 214.55L204.931 211.635L199.686 208.72C196.942 213.659 195.378 219.345 195.378 225.379L201.378 225.38ZM204.931 211.635L206.281 205.789C196.378 203.502 189 194.619 189 184.028H183H177C177 200.329 188.355 213.964 203.58 217.481L204.931 211.635ZM183 184.028L189 184.028C189 173.699 196.017 164.995 205.555 162.449L204.008 156.652L202.461 150.855C187.804 154.767 177 168.127 177 184.028L183 184.028ZM204.008 156.652L209.448 154.122C208.122 151.27 207.378 148.089 207.378 144.719L201.378 144.719L195.378 144.719C195.378 149.876 196.521 154.781 198.567 159.182L204.008 156.652ZM201.378 144.719H207.378C207.378 132.385 217.378 122.385 229.712 122.385V116.385V110.385C210.75 110.385 195.378 125.758 195.378 144.719H201.378ZM229.712 116.385L229.712 122.385C232.68 122.385 235.501 122.963 238.079 124.006L240.329 118.444L242.579 112.882C238.599 111.272 234.253 110.385 229.712 110.385L229.712 116.385ZM240.329 118.444L246.189 119.732C248.391 109.713 257.327 102.22 268 102.22V96.2203V90.2203C251.572 90.2203 237.855 101.752 234.469 117.156L240.329 118.444Z" fill="black" mask="url(#path-5-inside-3_8_3)"/>
<mask id="path-7-inside-4_8_3" fill="white">
<path d="M134 68.2203C147.421 68.2203 158.661 77.5526 161.589 90.0817C164.609 88.9842 167.868 88.3854 171.268 88.3854C186.916 88.3855 199.601 101.071 199.601 116.719C199.601 120.893 198.697 124.855 197.077 128.422C209.637 131.328 219 142.585 219 156.028C219 169.798 209.176 181.272 196.154 183.828C198.351 187.853 199.601 192.47 199.601 197.38C199.601 213.027 186.916 225.712 171.268 225.713C166.794 225.713 162.563 224.674 158.801 222.828C153.97 231.549 144.676 237.455 134 237.455C123.158 237.455 113.74 231.365 108.977 222.42C105.019 224.52 100.505 225.712 95.7119 225.713C80.0638 225.713 67.3779 213.028 67.3779 197.38C67.378 192.392 68.6681 187.706 70.9307 183.635C58.3664 180.733 49 169.474 49 156.028C49.0001 142.913 57.9107 131.881 70.0078 128.652C68.3213 125.025 67.378 120.983 67.3779 116.719C67.3779 101.071 80.0638 88.3854 95.7119 88.3854C99.4665 88.3854 103.05 89.1176 106.329 90.444C109.123 77.7329 120.45 68.2203 134 68.2203Z"/>
</mask>
<path d="M134 68.2203C147.421 68.2203 158.661 77.5526 161.589 90.0817C164.609 88.9842 167.868 88.3854 171.268 88.3854C186.916 88.3855 199.601 101.071 199.601 116.719C199.601 120.893 198.697 124.855 197.077 128.422C209.637 131.328 219 142.585 219 156.028C219 169.798 209.176 181.272 196.154 183.828C198.351 187.853 199.601 192.47 199.601 197.38C199.601 213.027 186.916 225.712 171.268 225.713C166.794 225.713 162.563 224.674 158.801 222.828C153.97 231.549 144.676 237.455 134 237.455C123.158 237.455 113.74 231.365 108.977 222.42C105.019 224.52 100.505 225.712 95.7119 225.713C80.0638 225.713 67.3779 213.028 67.3779 197.38C67.378 192.392 68.6681 187.706 70.9307 183.635C58.3664 180.733 49 169.474 49 156.028C49.0001 142.913 57.9107 131.881 70.0078 128.652C68.3213 125.025 67.378 120.983 67.3779 116.719C67.3779 101.071 80.0638 88.3854 95.7119 88.3854C99.4665 88.3854 103.05 89.1176 106.329 90.444C109.123 77.7329 120.45 68.2203 134 68.2203Z" fill="#147439"/>
<path d="M161.589 90.0817L155.746 91.447L157.285 98.0299L163.638 95.7208L161.589 90.0817ZM171.268 88.3854L171.268 82.3854H171.268V88.3854ZM199.601 116.719L205.601 116.719V116.719H199.601ZM197.077 128.422L191.614 125.941L188.583 132.616L195.725 134.268L197.077 128.422ZM219 156.028H225V156.028L219 156.028ZM196.154 183.828L194.999 177.94L186.967 179.517L190.887 186.702L196.154 183.828ZM199.601 197.38H205.601V197.379L199.601 197.38ZM171.268 225.713V231.713H171.268L171.268 225.713ZM158.801 222.828L161.444 217.442L156.318 214.926L153.552 219.921L158.801 222.828ZM108.977 222.42L114.272 219.599L111.456 214.31L106.163 217.12L108.977 222.42ZM95.7119 225.713V231.713H95.712L95.7119 225.713ZM67.3779 197.38L61.3779 197.379V197.38H67.3779ZM70.9307 183.635L76.175 186.55L80.0474 179.583L72.281 177.789L70.9307 183.635ZM49 156.028L43 156.028V156.028H49ZM70.0078 128.652L71.5551 134.449L78.4632 132.605L75.4483 126.122L70.0078 128.652ZM67.3779 116.719H61.3779V116.719L67.3779 116.719ZM95.7119 88.3854L95.712 82.3854H95.7119V88.3854ZM106.329 90.444L104.079 96.0062L110.664 98.6697L112.189 91.732L106.329 90.444ZM134 68.2203V74.2203C144.571 74.2203 153.438 81.5709 155.746 91.447L161.589 90.0817L167.431 88.7164C163.884 73.5343 150.272 62.2203 134 62.2203V68.2203ZM161.589 90.0817L163.638 95.7208C166.011 94.8585 168.578 94.3854 171.268 94.3854V88.3854V82.3854C167.159 82.3854 163.207 83.1098 159.539 84.4425L161.589 90.0817ZM171.268 88.3854L171.268 94.3854C183.602 94.3855 193.601 104.385 193.601 116.719H199.601H205.601C205.601 97.7579 190.229 82.3856 171.268 82.3854L171.268 88.3854ZM199.601 116.719L193.601 116.719C193.601 120.019 192.888 123.137 191.614 125.941L197.077 128.422L202.54 130.904C204.507 126.573 205.601 121.766 205.601 116.719L199.601 116.719ZM197.077 128.422L195.725 134.268C205.625 136.558 213 145.439 213 156.028L219 156.028L225 156.028C225 139.73 213.65 126.097 198.429 122.577L197.077 128.422ZM219 156.028H213C213 166.875 205.261 175.926 194.999 177.94L196.154 183.828L197.31 189.715C213.091 186.618 225 172.722 225 156.028H219ZM196.154 183.828L190.887 186.702C192.616 189.869 193.601 193.501 193.601 197.38L199.601 197.38L205.601 197.379C205.601 191.44 204.086 185.838 201.421 180.954L196.154 183.828ZM199.601 197.38H193.601C193.601 209.714 183.602 219.712 171.268 219.713L171.268 225.713L171.268 231.713C190.229 231.712 205.601 216.341 205.601 197.38H199.601ZM171.268 225.713V219.713C167.732 219.713 164.403 218.894 161.444 217.442L158.801 222.828L156.157 228.214C160.723 230.455 165.856 231.713 171.268 231.713V225.713ZM158.801 222.828L153.552 219.921C149.736 226.812 142.406 231.455 134 231.455V237.455V243.455C146.945 243.455 158.205 236.287 164.05 225.735L158.801 222.828ZM134 237.455V231.455C125.463 231.455 118.036 226.666 114.272 219.599L108.977 222.42L103.681 225.24C109.445 236.063 120.854 243.455 134 243.455V237.455ZM108.977 222.42L106.163 217.12C103.049 218.773 99.4987 219.712 95.7119 219.713L95.7119 225.713L95.712 231.713C101.511 231.712 106.988 230.268 111.79 227.719L108.977 222.42ZM95.7119 225.713V219.713C83.3773 219.713 73.3779 209.714 73.3779 197.38H67.3779H61.3779C61.3779 216.342 76.7504 231.713 95.7119 231.713V225.713ZM67.3779 197.38L73.3779 197.38C73.3779 193.439 74.3947 189.753 76.175 186.55L70.9307 183.635L65.6863 180.72C62.9416 185.659 61.378 191.345 61.3779 197.379L67.3779 197.38ZM70.9307 183.635L72.281 177.789C62.3782 175.502 55 166.619 55 156.028H49H43C43 172.329 54.3546 185.964 69.5803 189.481L70.9307 183.635ZM49 156.028L55 156.028C55.0001 145.699 62.0175 136.995 71.5551 134.449L70.0078 128.652L68.4605 122.855C53.804 126.767 43.0002 140.127 43 156.028L49 156.028ZM70.0078 128.652L75.4483 126.122C74.122 123.27 73.378 120.089 73.3779 116.719L67.3779 116.719L61.3779 116.719C61.378 121.876 62.5205 126.781 64.5673 131.182L70.0078 128.652ZM67.3779 116.719H73.3779C73.3779 104.385 83.3776 94.3854 95.7119 94.3854V88.3854V82.3854C76.7501 82.3854 61.3779 97.7576 61.3779 116.719H67.3779ZM95.7119 88.3854L95.7119 94.3854C98.6802 94.3854 101.501 94.9632 104.079 96.0062L106.329 90.444L108.579 84.8817C104.599 83.272 100.253 82.3854 95.712 82.3854L95.7119 88.3854ZM106.329 90.444L112.189 91.732C114.391 81.7135 123.327 74.2203 134 74.2203V68.2203V62.2203C117.572 62.2203 103.855 73.7523 100.469 89.1559L106.329 90.444Z" fill="black" mask="url(#path-7-inside-4_8_3)"/>
<mask id="path-9-inside-5_8_3" fill="white">
<path d="M230.112 57.7189C243.41 59.5345 253.284 70.3015 254.49 83.1115C257.631 82.4326 260.941 82.2802 264.309 82.7401C279.813 84.8571 290.666 99.1423 288.549 114.646C287.984 118.781 286.554 122.585 284.466 125.901C296.517 130.478 304.271 142.898 302.453 156.218C300.59 169.862 289.304 179.901 276.056 180.672C277.688 184.958 278.302 189.701 277.637 194.565C275.521 210.069 261.236 220.922 245.732 218.805C241.3 218.2 237.248 216.599 233.77 214.26C227.804 222.248 217.796 226.842 207.219 225.398C196.477 223.931 187.969 216.623 184.459 207.116C180.254 208.662 175.62 209.232 170.871 208.584C155.367 206.467 144.513 192.183 146.63 176.678C147.305 171.737 149.217 167.268 152.01 163.541C139.953 158.966 132.196 146.543 134.015 133.221C135.789 120.227 146.111 110.501 158.533 108.938C157.353 105.117 156.965 100.984 157.542 96.7597C159.659 81.2554 173.944 70.4023 189.448 72.5191C193.168 73.027 196.62 74.2373 199.689 75.995C204.177 63.7788 216.687 55.8859 230.112 57.7189Z"/>
</mask>
<path d="M230.112 57.7189C243.41 59.5345 253.284 70.3015 254.49 83.1115C257.631 82.4326 260.941 82.2802 264.309 82.7401C279.813 84.8571 290.666 99.1423 288.549 114.646C287.984 118.781 286.554 122.585 284.466 125.901C296.517 130.478 304.271 142.898 302.453 156.218C300.59 169.862 289.304 179.901 276.056 180.672C277.688 184.958 278.302 189.701 277.637 194.565C275.521 210.069 261.236 220.922 245.732 218.805C241.3 218.2 237.248 216.599 233.77 214.26C227.804 222.248 217.796 226.842 207.219 225.398C196.477 223.931 187.969 216.623 184.459 207.116C180.254 208.662 175.62 209.232 170.871 208.584C155.367 206.467 144.513 192.183 146.63 176.678C147.305 171.737 149.217 167.268 152.01 163.541C139.953 158.966 132.196 146.543 134.015 133.221C135.789 120.227 146.111 110.501 158.533 108.938C157.353 105.117 156.965 100.984 157.542 96.7597C159.659 81.2554 173.944 70.4023 189.448 72.5191C193.168 73.027 196.62 74.2373 199.689 75.995C204.177 63.7788 216.687 55.8859 230.112 57.7189Z" fill="#147416"/>
<path d="M254.49 83.1115L248.517 83.6738L249.15 90.4044L255.758 88.976L254.49 83.1115ZM264.309 82.7401L265.121 76.7952L265.121 76.7952L264.309 82.7401ZM288.549 114.646L294.494 115.458L294.494 115.458L288.549 114.646ZM284.466 125.901L279.388 122.703L275.482 128.907L282.335 131.51L284.466 125.901ZM302.453 156.218L308.397 157.03L308.397 157.03L302.453 156.218ZM276.056 180.672L275.708 174.682L267.536 175.157L270.449 182.807L276.056 180.672ZM277.637 194.565L283.582 195.377L283.582 195.377L277.637 194.565ZM245.732 218.805L244.92 224.75L244.921 224.75L245.732 218.805ZM233.77 214.26L237.118 209.281L232.38 206.095L228.963 210.67L233.77 214.26ZM184.459 207.116L190.088 205.038L188.013 199.416L182.389 201.484L184.459 207.116ZM170.871 208.584L170.059 214.529L170.059 214.529L170.871 208.584ZM146.63 176.678L140.685 175.867L140.685 175.867L146.63 176.678ZM152.01 163.541L156.811 167.139L161.591 160.76L154.138 157.932L152.01 163.541ZM134.015 133.221L128.07 132.409L128.07 132.409L134.015 133.221ZM158.533 108.938L159.282 114.891L166.376 113.999L164.266 107.168L158.533 108.938ZM157.542 96.7597L151.597 95.948L151.597 95.9481L157.542 96.7597ZM189.448 72.5191L190.26 66.5742L190.26 66.5742L189.448 72.5191ZM199.689 75.995L196.708 81.2018L202.872 84.7316L205.321 78.064L199.689 75.995ZM230.112 57.7189L229.301 63.6638C239.774 65.0938 247.566 73.5764 248.517 83.6738L254.49 83.1115L260.464 82.5491C259.002 67.0266 247.046 53.9753 230.924 51.7741L230.112 57.7189ZM254.49 83.1115L255.758 88.976C258.225 88.4426 260.833 88.321 263.498 88.6849L264.309 82.7401L265.121 76.7952C261.05 76.2395 257.036 76.4225 253.222 77.2469L254.49 83.1115ZM264.309 82.7401L263.498 88.6849C275.718 90.3536 284.273 101.614 282.604 113.835L288.549 114.646L294.494 115.458C297.059 96.6709 283.909 79.3605 265.121 76.7952L264.309 82.7401ZM288.549 114.646L282.604 113.835C282.158 117.104 281.03 120.097 279.388 122.703L284.466 125.901L289.543 129.098C292.077 125.073 293.811 120.459 294.494 115.458L288.549 114.646ZM284.466 125.901L282.335 131.51C291.834 135.117 297.94 144.915 296.508 155.406L302.453 156.218L308.397 157.03C310.602 140.882 301.201 125.839 286.596 120.292L284.466 125.901ZM302.453 156.218L296.508 155.406C295.04 166.153 286.148 174.074 275.708 174.682L276.056 180.672L276.405 186.662C292.46 185.727 306.139 173.57 308.397 157.03L302.453 156.218ZM276.056 180.672L270.449 182.807C271.733 186.179 272.217 189.91 271.693 193.753L277.637 194.565L283.582 195.377C284.386 189.492 283.643 183.737 281.663 178.537L276.056 180.672ZM277.637 194.565L271.693 193.753C270.024 205.974 258.765 214.528 246.544 212.86L245.732 218.805L244.921 224.75C263.708 227.315 281.017 214.164 283.582 195.377L277.637 194.565ZM245.732 218.805L246.544 212.86C243.041 212.382 239.853 211.12 237.118 209.281L233.77 214.26L230.422 219.239C234.643 222.077 239.559 224.018 244.92 224.75L245.732 218.805ZM233.77 214.26L228.963 210.67C224.249 216.981 216.359 220.59 208.03 219.453L207.219 225.398L206.407 231.343C219.233 233.094 231.36 227.515 238.577 217.85L233.77 214.26ZM207.219 225.398L208.03 219.453C199.572 218.298 192.861 212.548 190.088 205.038L184.459 207.116L178.83 209.194C183.077 220.697 193.381 229.564 206.407 231.343L207.219 225.398ZM184.459 207.116L182.389 201.484C179.08 202.701 175.435 203.151 171.683 202.639L170.871 208.584L170.059 214.529C175.805 215.313 181.428 214.623 186.53 212.747L184.459 207.116ZM170.871 208.584L171.683 202.639C159.461 200.97 150.907 189.711 152.575 177.49L146.63 176.678L140.685 175.867C138.12 194.654 151.272 211.964 170.059 214.529L170.871 208.584ZM146.63 176.678L152.575 177.49C153.108 173.586 154.614 170.072 156.811 167.139L152.01 163.541L147.208 159.944C143.82 164.465 141.502 169.887 140.685 175.867L146.63 176.678ZM152.01 163.541L154.138 157.932C144.636 154.325 138.527 144.526 139.96 134.032L134.015 133.221L128.07 132.409C125.865 148.56 135.271 163.606 149.881 169.151L152.01 163.541ZM134.015 133.221L139.96 134.033C141.357 123.799 149.488 116.123 159.282 114.891L158.533 108.938L157.784 102.985C142.733 104.879 130.222 116.655 128.07 132.409L134.015 133.221ZM158.533 108.938L164.266 107.168C163.338 104.162 163.031 100.91 163.487 97.5713L157.542 96.7597L151.597 95.9481C150.899 101.057 151.368 106.071 152.801 110.709L158.533 108.938ZM157.542 96.7597L163.487 97.5713C165.155 85.3504 176.416 76.7954 188.637 78.4639L189.448 72.5191L190.26 66.5742C171.472 64.0091 154.162 77.1605 151.597 95.948L157.542 96.7597ZM189.448 72.5191L188.637 78.4639C191.578 78.8655 194.294 79.8196 196.708 81.2018L199.689 75.995L202.671 70.7883C198.945 68.655 194.759 67.1886 190.26 66.5742L189.448 72.5191ZM199.689 75.995L205.321 78.064C208.859 68.4354 218.726 62.22 229.301 63.6638L230.112 57.7189L230.924 51.7741C214.647 49.5518 199.496 59.1221 194.057 73.9261L199.689 75.995Z" fill="black" mask="url(#path-9-inside-5_8_3)"/>
<path d="M232.741 189.22C216.567 234.744 207.976 270.464 207.167 304.264C206.333 339.105 213.773 371.681 229.341 410.644C231.306 415.562 228.82 421.031 224.022 422.552C205.148 428.537 189.586 431.344 174.161 431.216C158.731 431.089 143.268 428.024 124.584 422.057C120.167 420.647 117.633 415.878 118.868 411.224C129.277 372.018 134.512 339.486 134.134 304.739C133.766 270.924 128.082 235.148 116.829 189.22H232.741Z" fill="#147416" stroke="black" stroke-width="6"/>
<mask id="path-12-inside-6_8_3" fill="white">
<path d="M176 125.22C190.369 125.22 202.403 134.76 205.537 147.568C208.77 146.446 212.259 145.835 215.897 145.835C232.65 145.835 246.231 158.802 246.231 174.798C246.231 179.065 245.264 183.116 243.529 186.763C256.976 189.733 267 201.24 267 214.982C267 229.059 256.483 240.787 242.542 243.4C244.894 247.515 246.231 252.235 246.231 257.254C246.231 273.25 232.65 286.217 215.897 286.217C211.108 286.217 206.579 285.155 202.551 283.267C197.38 292.183 187.429 298.22 176 298.22C164.393 298.22 154.311 291.994 149.211 282.85C144.974 284.998 140.141 286.217 135.009 286.217C118.256 286.217 104.676 273.25 104.676 257.254C104.676 252.155 106.057 247.364 108.479 243.203C95.028 240.236 85 228.728 85 214.982C85 201.575 94.5404 190.297 107.492 186.997C105.686 183.289 104.676 179.157 104.676 174.798C104.676 158.802 118.256 145.835 135.009 145.835C139.029 145.835 142.865 146.582 146.376 147.938C149.367 134.944 161.493 125.22 176 125.22Z"/>
</mask>
<path d="M176 125.22C190.369 125.22 202.403 134.76 205.537 147.568C208.77 146.446 212.259 145.835 215.897 145.835C232.65 145.835 246.231 158.802 246.231 174.798C246.231 179.065 245.264 183.116 243.529 186.763C256.976 189.733 267 201.24 267 214.982C267 229.059 256.483 240.787 242.542 243.4C244.894 247.515 246.231 252.235 246.231 257.254C246.231 273.25 232.65 286.217 215.897 286.217C211.108 286.217 206.579 285.155 202.551 283.267C197.38 292.183 187.429 298.22 176 298.22C164.393 298.22 154.311 291.994 149.211 282.85C144.974 284.998 140.141 286.217 135.009 286.217C118.256 286.217 104.676 273.25 104.676 257.254C104.676 252.155 106.057 247.364 108.479 243.203C95.028 240.236 85 228.728 85 214.982C85 201.575 94.5404 190.297 107.492 186.997C105.686 183.289 104.676 179.157 104.676 174.798C104.676 158.802 118.256 145.835 135.009 145.835C139.029 145.835 142.865 146.582 146.376 147.938C149.367 134.944 161.493 125.22 176 125.22Z" fill="#29842B"/>
<path d="M176 125.22V119.22V119.22V125.22ZM205.537 147.568L199.709 148.994L201.276 155.397L207.504 153.236L205.537 147.568ZM215.897 145.835V139.835H215.897L215.897 145.835ZM246.231 174.798L252.231 174.799V174.798H246.231ZM243.529 186.763L238.111 184.186L234.872 190.996L242.235 192.622L243.529 186.763ZM267 214.982H273V214.982L267 214.982ZM242.542 243.4L241.437 237.503L233.149 239.056L237.333 246.377L242.542 243.4ZM246.231 257.254L252.231 257.254V257.254H246.231ZM215.897 286.217L215.897 292.217H215.897V286.217ZM202.551 283.267L205.097 277.834L200.119 275.501L197.361 280.257L202.551 283.267ZM176 298.22V304.22V304.22V298.22ZM149.211 282.85L154.451 279.928L151.642 274.891L146.498 277.499L149.211 282.85ZM135.009 286.217L135.009 292.217H135.009V286.217ZM104.676 257.254H98.6758V257.254H104.676ZM108.479 243.203L113.665 246.221L117.802 239.115L109.772 237.344L108.479 243.203ZM85 214.982L79 214.982V214.982H85ZM107.492 186.997L108.974 192.811L116.112 190.992L112.886 184.369L107.492 186.997ZM104.676 174.798H98.6758V174.799L104.676 174.798ZM135.009 145.835V139.835H135.009L135.009 145.835ZM146.376 147.938L144.214 153.535L150.67 156.029L152.223 149.284L146.376 147.938ZM176 125.22V131.22C187.718 131.22 197.258 138.98 199.709 148.994L205.537 147.568L211.365 146.142C207.547 130.54 193.02 119.22 176 119.22V125.22ZM205.537 147.568L207.504 153.236C210.11 152.332 212.934 151.835 215.898 151.835L215.897 145.835L215.897 139.835C211.583 139.835 207.43 140.56 203.57 141.9L205.537 147.568ZM215.897 145.835V151.835C229.601 151.835 240.231 162.374 240.231 174.798H246.231H252.231C252.231 155.23 235.699 139.835 215.897 139.835V145.835ZM246.231 174.798L240.231 174.798C240.231 178.147 239.474 181.32 238.111 184.186L243.529 186.763L248.947 189.341C251.054 184.912 252.231 179.983 252.231 174.799L246.231 174.798ZM243.529 186.763L242.235 192.622C253.175 195.038 261 204.295 261 214.982L267 214.982L273 214.982C273 198.184 260.777 184.428 244.823 180.904L243.529 186.763ZM267 214.982H261C261 225.926 252.787 235.375 241.437 237.503L242.542 243.4L243.647 249.297C260.178 246.199 273 232.191 273 214.982H267ZM242.542 243.4L237.333 246.377C239.186 249.62 240.231 253.318 240.231 257.254H246.231H252.231C252.231 251.152 250.602 245.411 247.751 240.423L242.542 243.4ZM246.231 257.254L240.231 257.254C240.231 269.678 229.601 280.217 215.897 280.217V286.217V292.217C235.699 292.217 252.231 276.822 252.231 257.254L246.231 257.254ZM215.897 286.217L215.898 280.217C212.002 280.217 208.34 279.354 205.097 277.834L202.551 283.267L200.005 288.7C204.817 290.956 210.214 292.217 215.897 292.217L215.897 286.217ZM202.551 283.267L197.361 280.257C193.266 287.316 185.297 292.22 176 292.22V298.22V304.22C189.562 304.22 201.493 297.049 207.741 286.278L202.551 283.267ZM176 298.22V292.22C166.558 292.22 158.486 287.162 154.451 279.928L149.211 282.85L143.971 285.773C150.136 296.826 162.229 304.22 176 304.22V298.22ZM149.211 282.85L146.498 277.499C143.088 279.227 139.183 280.217 135.009 280.217V286.217V292.217C141.098 292.217 146.859 290.769 151.924 288.202L149.211 282.85ZM135.009 286.217L135.009 280.217C121.306 280.217 110.676 269.678 110.676 257.254H104.676H98.6758C98.6758 276.822 115.207 292.217 135.009 292.217L135.009 286.217ZM104.676 257.254H110.676C110.676 253.256 111.755 249.502 113.665 246.221L108.479 243.203L103.294 240.184C100.359 245.226 98.6758 251.054 98.6758 257.254H104.676ZM108.479 243.203L109.772 237.344C98.8281 234.93 91 225.671 91 214.982H85H79C79 231.784 91.228 245.542 107.187 249.062L108.479 243.203ZM85 214.982L91 214.982C91 204.554 98.4441 195.494 108.974 192.811L107.492 186.997L106.011 181.182C90.6367 185.1 79 198.596 79 214.982L85 214.982ZM107.492 186.997L112.886 184.369C111.466 181.454 110.676 178.217 110.676 174.798L104.676 174.798L98.6758 174.799C98.6758 180.096 99.9064 185.124 102.098 189.624L107.492 186.997ZM104.676 174.798H110.676C110.676 162.374 121.306 151.835 135.009 151.835L135.009 145.835L135.009 139.835C115.207 139.835 98.6758 155.23 98.6758 174.798H104.676ZM135.009 145.835V151.835C138.28 151.835 141.385 152.442 144.214 153.535L146.376 147.938L148.538 142.341C144.346 140.722 139.777 139.835 135.009 139.835V145.835ZM146.376 147.938L152.223 149.284C154.561 139.13 164.168 131.22 176 131.22V125.22V119.22C158.819 119.22 144.174 130.759 140.529 146.592L146.376 147.938Z" fill="black" mask="url(#path-12-inside-6_8_3)"/>
<path d="M153.053 339.22C156.779 339.22 160.468 341.393 163.353 345.547C166.229 349.69 168.104 355.575 168.104 362.22C168.104 368.865 166.229 374.751 163.353 378.894C160.468 383.048 156.779 385.22 153.053 385.22C149.327 385.22 145.636 383.048 142.752 378.894C139.875 374.751 138 368.865 138 362.22C138 355.575 139.875 349.69 142.752 345.547C145.636 341.392 149.327 339.22 153.053 339.22Z" fill="white" stroke="black" stroke-width="6"/>
<ellipse cx="153.326" cy="366.743" rx="10.1202" ry="17.3864" fill="black"/>
<path d="M160.5 353L164.397 365H156.603L160.5 353Z" fill="white"/>
<path d="M153.108 339.22C156.283 339.22 159.269 341.036 161.609 343.539C162.753 344.762 163.65 346.057 164.246 347.169C164.34 347.343 164.421 347.506 164.493 347.657C160.281 350.064 156.336 351.25 152.742 351.219C149.138 351.188 145.638 349.934 142.307 347.016C142.399 346.792 142.513 346.544 142.651 346.277C143.167 345.28 143.954 344.131 144.981 343.05C147.055 340.87 149.847 339.22 153.108 339.22Z" fill="#147439" stroke="black" stroke-width="6"/>
<path d="M191.053 339.22C194.779 339.22 198.468 341.393 201.353 345.547C204.229 349.69 206.104 355.575 206.104 362.22C206.104 368.865 204.229 374.751 201.353 378.894C198.468 383.048 194.779 385.22 191.053 385.22C187.327 385.22 183.636 383.048 180.752 378.894C177.875 374.751 176 368.865 176 362.22C176 355.575 177.875 349.69 180.752 345.547C183.636 341.392 187.327 339.22 191.053 339.22Z" fill="white" stroke="black" stroke-width="6"/>
<ellipse cx="191.326" cy="366.743" rx="10.1202" ry="17.3864" fill="black"/>
<path d="M198.5 353L202.397 365H194.603L198.5 353Z" fill="white"/>
<path d="M190.595 339.22C193.958 339.22 197.081 341.075 199.499 343.575C200.685 344.801 201.614 346.097 202.229 347.207C202.314 347.36 202.389 347.504 202.457 347.638C198.088 350.051 193.977 351.251 190.214 351.219C186.435 351.188 182.786 349.916 179.332 346.998C179.423 346.789 179.534 346.56 179.666 346.314C180.198 345.32 181.011 344.171 182.077 343.088C184.223 340.906 187.147 339.22 190.595 339.22Z" fill="#147439" stroke="black" stroke-width="6"/>
<path d="M147 397.529C161.167 412.094 190.333 412.297 202 397.529" stroke="black" stroke-width="6" stroke-linecap="round"/>
<path d="M166 414.22C171.409 415.544 182.545 415.563 187 414.22" stroke="black" stroke-width="6" stroke-linecap="round"/>
<path d="M145.355 330.711C141.423 332.738 135.231 338.835 133.703 342.234" stroke="black" stroke-width="6" stroke-linecap="round"/>
<path d="M195 329.832C199.246 331.073 206.486 335.88 208.632 338.926" stroke="black" stroke-width="6" stroke-linecap="round"/>
<path d="M147.75 391.622C150.519 395.232 144.035 400.38 141.081 396.529" stroke="black" stroke-width="6" stroke-linecap="round"/>
<path d="M200.297 391.605C197.494 395.19 203.93 400.397 206.92 396.574" stroke="black" stroke-width="6" stroke-linecap="round"/>
</svg>
