<svg width="403" height="413" viewBox="0 0 403 413" fill="none" xmlns="http://www.w3.org/2000/svg">
<path d="M142.317 388C140.107 388 138.317 389.791 138.317 392C138.317 394.209 140.107 396 142.317 396V392V388ZM169.965 392V388H142.317V392V396H169.965V392Z" fill="black"/>
<path d="M179.396 392.844C177.22 393.226 175.766 395.3 176.148 397.476C176.531 399.652 178.604 401.106 180.78 400.723L180.088 396.784L179.396 392.844ZM207.319 392L206.627 388.06L179.396 392.844L180.088 396.784L180.78 400.723L208.012 395.94L207.319 392Z" fill="black"/>
<path d="M140.035 395.104C137.891 395.637 136.585 397.807 137.118 399.951C137.651 402.095 139.821 403.401 141.965 402.868L141 398.986L140.035 395.104ZM169.11 392L168.145 388.118L140.035 395.104L141 398.986L141.965 402.868L170.075 395.882L169.11 392Z" fill="black"/>
<path d="M178.378 400.236C176.359 401.132 175.448 403.495 176.344 405.515C177.239 407.534 179.603 408.445 181.622 407.549L180 403.893L178.378 400.236ZM206.477 392.148L204.855 388.492L178.378 400.236L180 403.893L181.622 407.549L208.099 395.804L206.477 392.148Z" fill="black"/>
<path d="M168.699 392.658L148.241 404.508" stroke="black" stroke-width="8" stroke-linecap="round"/>
<path d="M206.186 392.867L188.087 408.078" stroke="black" stroke-width="8" stroke-linecap="round"/>
<path d="M292.644 283.566C166.307 358.098 93.2963 215.843 78.9235 128.057L128.777 66.0408C191.973 100.726 292.627 162.318 351.321 204.528C376.056 222.315 393.339 236.661 397.226 244.1C405.015 259.008 371.455 259.968 355.493 256.452C354.625 256.261 353.892 257.226 354.238 258.045C365.041 283.586 309.935 295.726 293.817 283.626C293.478 283.371 293.009 283.351 292.644 283.566Z" fill="black"/>
<path d="M282.081 207.49C290.58 212.408 300.018 219.167 305.606 225.922C315.598 238.004 313.271 250.076 271.219 251.596C205.652 253.966 163.587 183.243 150.75 147.585M305.606 225.922C326.619 230.091 361.327 222.697 351.321 204.528M78.9235 128.057C93.2963 215.843 166.307 358.098 292.644 283.566C293.009 283.351 293.478 283.371 293.817 283.626C309.935 295.726 365.041 283.586 354.238 258.045C353.892 257.226 354.625 256.261 355.493 256.452C371.455 259.968 405.015 259.008 397.226 244.099C384.117 219.01 218.605 115.344 128.777 66.0408L78.9235 128.057Z" stroke="black" stroke-width="8" stroke-linecap="round"/>
<path d="M18.3101 121.47C25.148 115.76 35.392 111.082 47.9283 108.886C61.7422 106.465 75.3435 107.586 86.0972 111.261C94.5473 114.148 100.822 118.451 104.346 123.453L10.2843 139.933C9.78687 140.02 9.36648 139.904 9.13201 139.756C9.025 139.688 8.97868 139.629 8.96206 139.603C8.9504 139.584 8.93402 139.555 8.92741 139.483C8.39425 133.585 11.4489 127.2 18.3101 121.47Z" fill="black" stroke="black" stroke-width="8"/>
<path d="M49.962 153.685C55.7023 153.962 62.9937 152.462 70.8442 148.807C79.9413 144.573 87.7238 138.406 92.9382 131.983C96.3136 127.826 98.3997 123.844 99.2971 120.368L39.6969 148.11C39.4849 148.209 39.2943 148.345 39.1421 148.495C39.0273 148.608 38.9521 148.712 38.9062 148.79C40.6177 151.439 44.2504 153.41 49.962 153.685Z" fill="black" stroke="black" stroke-width="8"/>
<path d="M75.6358 19.4742C108.315 11.4414 142.077 32.9251 150.708 68.0359C159.339 103.147 139.384 137.835 106.705 145.868C74.0264 153.901 40.2642 132.417 31.6334 97.3061C23.0027 62.1953 42.957 27.5072 75.6358 19.4742Z" fill="black" stroke="black" stroke-width="8"/>
<ellipse cx="93.1252" cy="82.1051" rx="28.0175" ry="34.6532" transform="rotate(-10.5296 93.1252 82.1051)" fill="#D9D9D9"/>
<circle cx="79.9832" cy="76.1595" r="6.25383" fill="black"/>
<path d="M213.255 296.633C210.655 303.475 212.326 318.757 207.073 319.572C201.821 320.386 196.073 311.436 194.235 299.582C192.396 287.728 195.164 277.458 200.417 276.643C205.669 275.829 211.417 284.778 213.255 296.633Z" fill="black"/>
<path d="M251.437 296.633C248.837 303.475 250.507 318.757 245.254 319.572C240.002 320.386 234.254 311.436 232.416 299.582C230.578 287.728 233.346 277.458 238.598 276.643C243.85 275.829 249.598 284.778 251.437 296.633Z" fill="black"/>
<path d="M204.882 317L171 391.497" stroke="black" stroke-width="8" stroke-linecap="round"/>
<line x1="243.489" y1="317.03" x2="208.074" y2="390.81" stroke="black" stroke-width="8" stroke-linecap="round"/>
</svg>
