<svg width="426" height="332" viewBox="0 0 426 332" fill="none" xmlns="http://www.w3.org/2000/svg">
<mask id="path-1-inside-1_8_4" fill="white">
<path d="M192.843 106C205.863 106 218.322 108.611 229.805 113.377C230.175 113.372 230.547 113.369 230.919 113.369C245.623 113.369 259.548 117.071 271.979 123.677C312.596 132.206 343.305 171.64 343.305 219C343.305 266.36 312.596 305.793 271.979 314.322C259.547 320.929 245.623 324.631 230.919 324.631C230.547 324.631 230.175 324.627 229.805 324.622C218.322 329.388 205.863 332 192.843 332C179.801 332 167.322 329.38 155.823 324.599C155.064 324.618 154.302 324.631 153.538 324.631C139.363 324.631 125.913 321.19 113.825 315.024C71.3372 308.229 38.6953 267.827 38.6953 219C38.6953 170.172 71.3371 129.77 113.825 122.975C125.913 116.809 139.363 113.369 153.538 113.369C154.302 113.369 155.064 113.381 155.823 113.4C167.322 108.619 179.801 106 192.843 106Z"/>
</mask>
<path d="M192.843 106C205.863 106 218.322 108.611 229.805 113.377C230.175 113.372 230.547 113.369 230.919 113.369C245.623 113.369 259.548 117.071 271.979 123.677C312.596 132.206 343.305 171.64 343.305 219C343.305 266.36 312.596 305.793 271.979 314.322C259.547 320.929 245.623 324.631 230.919 324.631C230.547 324.631 230.175 324.627 229.805 324.622C218.322 329.388 205.863 332 192.843 332C179.801 332 167.322 329.38 155.823 324.599C155.064 324.618 154.302 324.631 153.538 324.631C139.363 324.631 125.913 321.19 113.825 315.024C71.3372 308.229 38.6953 267.827 38.6953 219C38.6953 170.172 71.3371 129.77 113.825 122.975C125.913 116.809 139.363 113.369 153.538 113.369C154.302 113.369 155.064 113.381 155.823 113.4C167.322 108.619 179.801 106 192.843 106Z" fill="#BF6E21"/>
<path d="M192.843 106L192.843 100H192.843V106ZM229.805 113.377L227.505 118.919L228.646 119.392L229.881 119.376L229.805 113.377ZM230.919 113.369L230.919 107.369H230.919V113.369ZM271.979 123.677L269.164 128.975L269.915 129.374L270.746 129.549L271.979 123.677ZM343.305 219H349.305H343.305ZM271.979 314.322L270.746 308.45L269.915 308.625L269.164 309.024L271.979 314.322ZM230.919 324.631V330.631H230.919L230.919 324.631ZM229.805 324.622L229.881 318.623L228.646 318.607L227.505 319.08L229.805 324.622ZM192.843 332V338H192.843L192.843 332ZM155.823 324.599L158.127 319.058L156.945 318.567L155.666 318.601L155.823 324.599ZM153.538 324.631V330.631V330.631V324.631ZM113.825 315.024L116.552 309.68L115.708 309.249L114.773 309.1L113.825 315.024ZM38.6953 219H32.6953H38.6953ZM113.825 122.975L114.773 128.899L115.708 128.75L116.552 128.319L113.825 122.975ZM153.538 113.369V107.369V107.369V113.369ZM155.823 113.4L155.666 119.398L156.945 119.432L158.127 118.941L155.823 113.4ZM192.843 106L192.843 112C205.051 112 216.731 114.447 227.505 118.919L229.805 113.377L232.105 107.835C219.914 102.775 206.674 100 192.843 100L192.843 106ZM229.805 113.377L229.881 119.376C230.235 119.372 230.58 119.369 230.919 119.369V113.369V107.369C230.514 107.369 230.116 107.373 229.728 107.377L229.805 113.377ZM230.919 113.369L230.919 119.369C244.598 119.369 257.56 122.809 269.164 128.975L271.979 123.677L274.795 118.378C261.535 111.332 246.648 107.369 230.919 107.369L230.919 113.369ZM271.979 123.677L270.746 129.549C308.251 137.424 337.305 174.123 337.305 219H343.305H349.305C349.305 169.158 316.941 126.987 273.213 117.805L271.979 123.677ZM343.305 219H337.305C337.305 263.877 308.251 300.575 270.746 308.45L271.979 314.322L273.213 320.194C316.941 311.012 349.305 268.842 349.305 219H343.305ZM271.979 314.322L269.164 309.024C257.56 315.19 244.598 318.631 230.919 318.631L230.919 324.631L230.919 330.631C246.648 330.631 261.535 326.667 274.795 319.621L271.979 314.322ZM230.919 324.631V318.631C230.588 318.631 230.248 318.627 229.881 318.623L229.805 324.622L229.728 330.622C230.103 330.626 230.507 330.631 230.919 330.631V324.631ZM229.805 324.622L227.505 319.08C216.73 323.553 205.051 326 192.843 326L192.843 332L192.843 338C206.674 338 219.914 335.224 232.105 330.164L229.805 324.622ZM192.843 332V326C180.614 326 168.916 323.545 158.127 319.058L155.823 324.599L153.52 330.139C165.727 335.215 178.988 338 192.843 338V332ZM155.823 324.599L155.666 318.601C154.946 318.62 154.238 318.631 153.538 318.631V324.631V330.631C154.366 330.631 155.182 330.617 155.98 330.597L155.823 324.599ZM153.538 324.631V318.631C140.35 318.631 127.83 315.433 116.552 309.68L113.825 315.024L111.099 320.369C123.995 326.948 138.376 330.631 153.538 330.631V324.631ZM113.825 315.024L114.773 309.1C75.5764 302.831 44.6953 265.283 44.6953 219H38.6953H32.6953C32.6953 270.372 67.0979 313.627 112.878 320.949L113.825 315.024ZM38.6953 219H44.6953C44.6953 172.717 75.5764 135.168 114.773 128.899L113.825 122.975L112.878 117.05C67.0977 124.372 32.6953 167.628 32.6953 219H38.6953ZM113.825 122.975L116.552 128.319C127.83 122.566 140.35 119.369 153.538 119.369V113.369V107.369C138.376 107.369 123.995 111.051 111.099 117.63L113.825 122.975ZM153.538 113.369V119.369C154.243 119.369 154.951 119.38 155.666 119.398L155.823 113.4L155.98 107.402C155.176 107.381 154.361 107.369 153.538 107.369V113.369ZM155.823 113.4L158.127 118.941C168.916 114.455 180.614 112 192.843 112V106V100C178.989 100 165.728 102.784 153.52 107.86L155.823 113.4Z" fill="black" mask="url(#path-1-inside-1_8_4)"/>
<path d="M207.006 270.156C204.582 273.356 201.83 280.894 210.212 285.452" stroke="black" stroke-width="6" stroke-linecap="round"/>
<path d="M150 190C166.185 190 180 205.259 180 225C180 244.741 166.185 260 150 260C133.815 260 120 244.741 120 225C120 205.259 133.815 190 150 190Z" fill="white" stroke="black" stroke-width="6"/>
<ellipse cx="142.5" cy="233.5" rx="18.5" ry="25.5" fill="black"/>
<path d="M159 208L168.526 230.743H149.474L159 208Z" fill="white"/>
<path d="M150 190C164.343 190 175.782 200.258 176.907 212.944C166.41 216.766 158.224 218.675 150.113 218.72C141.999 218.764 133.733 216.945 123.09 212.967C124.203 200.27 135.649 190 150 190Z" fill="#BF6E21" stroke="black" stroke-width="6"/>
<path d="M231 190C247.185 190 261 205.259 261 225C261 244.741 247.185 260 231 260C214.815 260 201 244.741 201 225C201 205.259 214.815 190 231 190Z" fill="white" stroke="black" stroke-width="6"/>
<ellipse cx="223.5" cy="233.5" rx="18.5" ry="25.5" fill="black"/>
<path d="M240 208L249.526 230.743H230.474L240 208Z" fill="white"/>
<path d="M231 190C245.343 190 256.782 200.258 257.907 212.944C247.41 216.766 239.224 218.675 231.113 218.72C222.999 218.764 214.733 216.945 204.09 212.967C205.203 200.27 216.649 190 231 190Z" fill="#BF6E21" stroke="black" stroke-width="6"/>
<path d="M188.093 130.678C178.086 120.476 171.505 116.666 156.844 115.498" stroke="black" stroke-width="6" stroke-linecap="round"/>
<path d="M113.192 312.292C96.9627 305.677 67.5 281 62.4999 223.5C57.4999 166 113 126 113 126" stroke="black" stroke-width="6" stroke-linecap="round"/>
<path d="M272.142 312.292C288.371 305.677 321.5 284.5 321.5 216.5C321.5 148.5 272.334 126 272.334 126" stroke="black" stroke-width="6" stroke-linecap="round"/>
<path d="M174.343 279.366C185.267 283.369 191.438 283.87 202.626 279.603" stroke="black" stroke-width="6" stroke-linecap="round"/>
<path d="M224.956 137.478C202.117 129.326 189.245 128.39 166 137.478" stroke="black" stroke-width="6" stroke-linecap="round"/>
<path d="M203.498 130.636C213.532 120.461 220.124 116.669 234.787 115.541" stroke="black" stroke-width="6" stroke-linecap="round"/>
<path d="M107 214.484C112.842 216.646 116.145 216.924 122.143 214.659" stroke="black" stroke-width="6" stroke-linecap="round"/>
<path d="M189 214.484C194.842 216.646 198.145 216.924 204.143 214.659" stroke="black" stroke-width="6" stroke-linecap="round"/>
<path d="M217.941 21C188.628 60.2642 184.985 102.197 190.892 124.914C192.808 132.281 198.418 129.636 198.018 122.034C195.602 76.0204 217.076 42.732 231.5 30.5L217.941 21Z" fill="#147416" stroke="black" stroke-width="6" stroke-linecap="round"/>
<path d="M303.418 125.923C263.367 97.9415 218.48 109.586 196.379 124.026C189.858 128.287 193.898 132.806 201.025 129.663C273.844 97.5371 282.74 132.119 298.933 143.636L303.418 125.923Z" fill="#147416" stroke="black" stroke-width="6" stroke-linecap="round"/>
<path d="M85.9613 124.923C125.743 97.1294 167.87 108.431 188.858 122.736C195.294 127.123 191.035 131.806 183.909 128.662C111.09 96.537 102.193 131.119 86 142.636L85.9613 124.923Z" fill="#147416" stroke="black" stroke-width="6" stroke-linecap="round"/>
<path d="M228.331 21.2126C230.518 22.5356 231.983 24.2378 232.669 25.7894C233.364 27.3614 233.156 28.4495 232.726 29.0661C232.295 29.6827 231.311 30.3009 229.486 30.3486C227.684 30.3957 225.417 29.8421 223.229 28.519C221.042 27.196 219.578 25.4934 218.892 23.9419C218.198 22.3698 218.405 21.2817 218.835 20.6652C219.266 20.0487 220.25 19.4303 222.076 19.3827C223.877 19.3356 226.143 19.8897 228.331 21.2126Z" fill="#147416" stroke="black" stroke-width="6"/>
<path d="M387.982 131.836C378.405 108.232 353.359 113.927 356.148 111.573C371.432 94.3128 360.015 86.9183 359.671 78.4945C359.396 71.7554 364.636 65.9854 363.315 66.3076C340.723 63.5936 320.917 87.443 316.597 95.843C314.94 99.0663 312.599 77.4323 307.765 73.5915C306.1 72.2688 305.426 70.7454 305.296 69.3043C305.199 68.2194 303.437 66.8178 302.599 67.5131C286.149 81.1562 286.731 107.877 289.48 121.327C289.626 122.046 289.366 122.801 288.821 123.292C260.874 148.459 269.418 173.35 280.797 186.942C281.568 187.863 283.983 186.113 284.353 184.971C284.691 183.929 285.519 183.069 287.065 182.566C292.562 180.778 299.399 159.875 299.346 162.692C296.803 180.049 325.373 191.951 339.976 195.732C343.189 196.188 330.481 190.992 338.544 177.531C343.081 169.955 342.286 161.812 341.39 156.424C340.686 152.196 341.727 153.406 344.805 156.389C350.573 161.978 362.622 164.407 370.29 159.446C378.322 154.25 396.638 155.293 404.791 156.464C406.603 156.724 395.643 150.719 387.982 131.836Z" fill="#147416" stroke="black" stroke-width="6" stroke-linecap="round"/>
<path d="M36.3694 91.775C43.7864 116.144 69.2434 112.722 66.254 114.816C49.4808 130.633 60.1874 139.023 59.7733 147.444C59.442 154.181 53.705 159.457 55.0488 159.254C77.3058 163.987 99.1741 142.014 104.231 134.036C106.172 130.974 106.559 152.731 111.029 156.991C112.568 158.458 113.103 160.035 113.102 161.482C113.102 162.572 114.73 164.126 115.628 163.509C133.237 151.399 135.059 124.734 133.529 111.091C133.447 110.362 133.774 109.633 134.362 109.193C164.457 86.6388 158.184 61.0813 148.072 46.5219C147.387 45.5355 144.824 47.0608 144.353 48.1654C143.923 49.1727 143.02 49.955 141.436 50.3169C135.801 51.6038 127.113 71.8079 127.419 69.0071C131.511 51.9483 104.126 37.5284 89.9222 32.4507C86.7628 31.7077 98.9523 38.0243 89.7132 50.706C84.5131 57.8439 84.5736 66.0259 84.9823 71.4718C85.3029 75.7459 84.3753 74.4474 81.5775 71.2004C76.335 65.1159 64.5531 61.6141 56.4706 65.8656C48.0036 70.3195 29.8559 67.6352 21.8404 65.7363C20.0592 65.3144 30.4358 72.2797 36.3694 91.775Z" fill="#147416" stroke="black" stroke-width="6" stroke-linecap="round"/>
<path d="M229.33 171.6C248.738 173.994 258.352 177.979 271.812 192.944" stroke="black" stroke-width="6" stroke-linecap="round"/>
<path d="M105 196.385C119.151 182.888 128.326 177.976 148.431 177.046" stroke="black" stroke-width="6" stroke-linecap="round"/>
</svg>
