<svg width="341" height="391" viewBox="0 0 341 391" fill="none" xmlns="http://www.w3.org/2000/svg">
<path d="M35.5 341C24.1667 343.667 3.30001 352.1 10.5 364.5C17.7 376.9 30.1667 354 35.5 341Z" fill="#8E5C48" stroke="black" stroke-width="8"/>
<path d="M303 355C314.333 357.667 335.2 366.1 328 378.5C320.8 390.9 308.333 368 303 355Z" fill="#8E5C48" stroke="black" stroke-width="8"/>
<path d="M35.5 43.0657C24.1667 40.3991 3.30001 31.9657 10.5 19.5657C17.7 7.16573 30.1667 30.0657 35.5 43.0657Z" fill="#8E5C48" stroke="black" stroke-width="8"/>
<path d="M310 43.0657C321.334 40.3991 342.2 31.9657 335 19.5657C327.8 7.16573 315.334 30.0657 310 43.0657Z" fill="#8E5C48" stroke="black" stroke-width="8"/>
<path d="M22.3388 350.511C-11.3456 289.032 8.68129 124.742 24.6239 41.1009C25.5313 36.3401 28.5766 32.2586 32.9476 30.1652C130.834 -16.7138 255.262 9.49421 312.428 30.9917C316.614 32.5657 319.56 36.2008 320.251 40.6188C336.325 143.343 330.56 359.744 308.086 366.095C153.16 409.879 97.4631 373.483 33.0709 358.162C28.5991 357.098 24.5475 354.542 22.3388 350.511Z" fill="#8E5C48" stroke="black" stroke-width="8"/>
<rect x="82.4319" y="123.369" width="181" height="76" rx="7" fill="#C9B285" stroke="black" stroke-width="8"/>
</svg>
