<svg width="188" height="675" viewBox="0 0 188 675" fill="none" xmlns="http://www.w3.org/2000/svg">
<mask id="path-1-inside-1_14_25" fill="white">
<path d="M170.5 0C173.368 5.73064e-05 176.064 0.732025 178.414 2.01855C178.848 2.23943 179.277 2.48088 179.699 2.74414C187.426 7.57322 189.777 17.7526 184.948 25.4805L111.304 143.333C111.106 143.651 111 144.018 111 144.393V539C111 546.732 104.732 553 97.0004 553H92.0004C84.2684 553 78.0004 546.732 78.0004 539V143.288C78.0004 142.914 77.8951 142.546 77.6965 142.228L4.74358 25.4805C-0.0853266 17.7526 2.26492 7.57324 9.99261 2.74414C11.343 1.90033 12.7685 1.27537 14.227 0.860352C15.8827 0.302302 17.6565 8.06023e-08 19.5004 0H170.5ZM93.1491 104.685C93.9324 105.939 95.7579 105.939 96.5412 104.685L139.424 36.0599C140.257 34.7278 139.299 33 137.728 33H51.963C50.3922 33 49.4345 34.7277 50.2669 36.0598L93.1491 104.685Z"/>
</mask>
<path d="M170.5 0C173.368 5.73064e-05 176.064 0.732025 178.414 2.01855C178.848 2.23943 179.277 2.48088 179.699 2.74414C187.426 7.57322 189.777 17.7526 184.948 25.4805L111.304 143.333C111.106 143.651 111 144.018 111 144.393V539C111 546.732 104.732 553 97.0004 553H92.0004C84.2684 553 78.0004 546.732 78.0004 539V143.288C78.0004 142.914 77.8951 142.546 77.6965 142.228L4.74358 25.4805C-0.0853266 17.7526 2.26492 7.57324 9.99261 2.74414C11.343 1.90033 12.7685 1.27537 14.227 0.860352C15.8827 0.302302 17.6565 8.06023e-08 19.5004 0H170.5ZM93.1491 104.685C93.9324 105.939 95.7579 105.939 96.5412 104.685L139.424 36.0599C140.257 34.7278 139.299 33 137.728 33H51.963C50.3922 33 49.4345 34.7277 50.2669 36.0598L93.1491 104.685Z" fill="#8E5C48"/>
<path d="M170.5 0L170.501 -8H170.5V0ZM178.414 2.01855L174.571 9.03534L174.679 9.09453L174.789 9.15037L178.414 2.01855ZM179.699 2.74414L183.938 -4.04014L183.938 -4.04024L179.699 2.74414ZM184.948 25.4805L191.732 29.7199L191.732 29.7198L184.948 25.4805ZM97.0004 553V561H97.0006L97.0004 553ZM4.74358 25.4805L-2.0408 29.7198L-2.04078 29.7199L4.74358 25.4805ZM9.99261 2.74414L5.75325 -4.04024L5.75306 -4.04012L9.99261 2.74414ZM14.227 0.860352L16.4165 8.55489L16.6006 8.5025L16.7821 8.44135L14.227 0.860352ZM19.5004 0V-8V-8V0ZM139.424 36.0599L132.64 31.8204L139.424 36.0599ZM96.5412 104.685L89.7569 100.446L96.5412 104.685ZM93.1491 104.685L86.3647 108.925L93.1491 104.685ZM77.6965 142.229L70.9121 146.468L77.6965 142.229ZM111.304 143.333L104.52 139.094L111.304 143.333ZM170.5 0L170.5 8C171.99 8.00003 173.369 8.37709 174.571 9.03534L178.414 2.01855L182.256 -4.99823C178.759 -6.91304 174.746 -7.99992 170.501 -8L170.5 0ZM178.414 2.01855L174.789 9.15037C175.021 9.26833 175.245 9.39442 175.459 9.52853L179.699 2.74414L183.938 -4.04024C183.31 -4.43266 182.675 -4.78946 182.038 -5.11326L178.414 2.01855ZM179.699 2.74414L175.459 9.52843C179.44 12.0162 180.651 17.2602 178.163 21.2411L184.948 25.4805L191.732 29.7198C198.902 18.2449 195.413 3.13021 183.938 -4.04014L179.699 2.74414ZM184.948 25.4805L178.163 21.2411L104.52 139.094L111.304 143.333L118.089 147.572L191.732 29.7199L184.948 25.4805ZM111 144.393H103V539H111H119V144.393H111ZM111 539H103C103 542.313 100.314 545 97.0002 545L97.0004 553L97.0006 561C109.15 561 119 551.15 119 539H111ZM97.0004 553V545H92.0004V553V561H97.0004V553ZM92.0004 553V545C88.6867 545 86.0004 542.314 86.0004 539H78.0004H70.0004C70.0004 551.15 79.8502 561 92.0004 561V553ZM78.0004 539H86.0004V143.288H78.0004H70.0004V539H78.0004ZM77.6965 142.229L84.4809 137.989L11.528 21.2411L4.74358 25.4805L-2.04078 29.7199L70.9121 146.468L77.6965 142.229ZM4.74358 25.4805L11.528 21.2411C9.04047 17.2603 10.251 12.0162 14.2322 9.52841L9.99261 2.74414L5.75306 -4.04012C-5.72118 3.13023 -9.21113 18.2449 -2.0408 29.7198L4.74358 25.4805ZM9.99261 2.74414L14.232 9.52853C14.9394 9.0865 15.674 8.76617 16.4165 8.55489L14.227 0.860352L12.0375 -6.83419C9.86303 -6.21544 7.74662 -5.28584 5.75325 -4.04024L9.99261 2.74414ZM14.227 0.860352L16.7821 8.44135C17.6245 8.15743 18.5357 8 19.5004 8V0V-8C16.7772 -8 14.141 -7.55282 11.6719 -6.72065L14.227 0.860352ZM19.5004 0V8H170.5V0V-8H19.5004V0ZM96.5412 104.685L103.326 108.925L146.209 40.2993L139.424 36.0599L132.64 31.8204L89.7569 100.446L96.5412 104.685ZM137.728 33V25H51.963V33V41H137.728V33ZM50.2669 36.0598L43.4826 40.2992L86.3647 108.925L93.1491 104.685L99.9334 100.446L57.0513 31.8205L50.2669 36.0598ZM51.963 33V25C44.1091 25 39.3206 33.6387 43.4826 40.2992L50.2669 36.0598L57.0513 31.8205C59.5485 35.8168 56.6754 41 51.963 41V33ZM139.424 36.0599L146.209 40.2993C150.371 33.6387 145.582 25 137.728 25V33V41C133.016 41 130.143 35.8168 132.64 31.8204L139.424 36.0599ZM96.5412 104.685L89.7569 100.446C92.1068 96.6852 97.5835 96.6851 99.9334 100.446L93.1491 104.685L86.3647 108.925C90.2812 115.192 99.409 115.192 103.326 108.925L96.5412 104.685ZM78.0004 143.288H86.0004C86.0004 141.414 85.4739 139.578 84.4809 137.989L77.6965 142.229L70.9121 146.468C70.3164 145.514 70.0004 144.413 70.0004 143.288H78.0004ZM111.304 143.333L104.52 139.094C103.527 140.683 103 142.519 103 144.393H111H119C119 145.517 118.684 146.619 118.089 147.572L111.304 143.333Z" fill="black" mask="url(#path-1-inside-1_14_25)"/>
<mask id="path-3-inside-2_14_25" fill="white">
<path d="M169.182 462C179.123 462 187.182 470.059 187.182 480V571.8C187.182 572.408 187.151 573.008 187.092 573.601C184.954 629.576 143.911 674.218 93.5908 674.218C43.2706 674.218 2.22705 629.576 0.0888672 573.601C0.0300489 573.008 0 572.408 0 571.8V480C0 470.059 8.05887 462 18 462H169.182Z"/>
</mask>
<path d="M169.182 462C179.123 462 187.182 470.059 187.182 480V571.8C187.182 572.408 187.151 573.008 187.092 573.601C184.954 629.576 143.911 674.218 93.5908 674.218C43.2706 674.218 2.22705 629.576 0.0888672 573.601C0.0300489 573.008 0 572.408 0 571.8V480C0 470.059 8.05887 462 18 462H169.182Z" fill="#C9B285"/>
<path d="M187.182 480H195.182V480H187.182ZM187.092 573.601L179.131 572.81L179.107 573.052L179.098 573.295L187.092 573.601ZM93.5908 674.218L93.5908 682.218H93.5908V674.218ZM0.0888672 573.601L8.08304 573.295L8.07375 573.052L8.0497 572.81L0.0888672 573.601ZM18 462V454V462ZM169.182 462V470C174.704 470 179.182 474.477 179.182 480H187.182H195.182C195.182 465.641 183.541 454 169.182 454V462ZM187.182 480H179.182V571.8H187.182H195.182V480H187.182ZM187.182 571.8H179.182C179.182 572.135 179.165 572.472 179.131 572.81L187.092 573.601L195.053 574.391C195.137 573.545 195.182 572.68 195.182 571.8H187.182ZM187.092 573.601L179.098 573.295C177.09 625.848 138.788 666.218 93.5908 666.218V674.218V682.218C149.034 682.218 192.817 633.304 195.086 573.906L187.092 573.601ZM93.5908 674.218L93.5908 666.218C48.3935 666.218 10.0905 625.847 8.08304 573.295L0.0888672 573.601L-7.9053 573.906C-5.63637 633.304 38.1476 682.218 93.5908 682.218L93.5908 674.218ZM0.0888672 573.601L8.0497 572.81C8.017 572.481 8 572.144 8 571.8H0H-8C-8 572.671 -7.9569 573.536 -7.87197 574.391L0.0888672 573.601ZM0 571.8H8V480H0H-8V571.8H0ZM0 480H8C8 474.477 12.4772 470 18 470V462V454C3.6406 454 -8 465.641 -8 480H0ZM18 462V470H169.182V462V454H18V462Z" fill="black" mask="url(#path-3-inside-2_14_25)"/>
</svg>
