<svg width="246" height="268" viewBox="0 0 246 268" fill="none" xmlns="http://www.w3.org/2000/svg">
<path d="M123 75C189.946 75 243 118.133 243 170C243 221.867 189.946 265 123 265C56.0541 265 3 221.867 3 170C3 118.133 56.0541 75 123 75Z" fill="#D20C0C" stroke="black" stroke-width="6"/>
<path d="M128 240.75C128 223.75 159.5 223.75 159.5 240.75" stroke="black" stroke-width="6" stroke-linecap="round"/>
<path d="M84 139C100.185 139 114 154.259 114 174C114 193.741 100.185 209 84 209C67.8149 209 54 193.741 54 174C54 154.259 67.8149 139 84 139Z" fill="white" stroke="black" stroke-width="6"/>
<ellipse cx="73.5" cy="178.5" rx="18.5" ry="25.5" fill="black"/>
<path d="M90 153L99.5263 175.743H80.4737L90 153Z" fill="white"/>
<path d="M170 139C186.185 139 200 154.259 200 174C200 193.741 186.185 209 170 209C153.815 209 140 193.741 140 174C140 154.259 153.815 139 170 139Z" fill="white" stroke="black" stroke-width="6"/>
<ellipse cx="159.5" cy="178.5" rx="18.5" ry="25.5" fill="black"/>
<path d="M176 153L185.526 175.743H166.474L176 153Z" fill="white"/>
<path d="M139 147.878C145.113 137.979 149.654 133.77 161.086 130.208" stroke="black" stroke-width="6" stroke-linecap="round"/>
<path d="M114.239 145.414C106.867 136.413 101.808 132.844 90.005 130.829" stroke="black" stroke-width="6" stroke-linecap="round"/>
<path d="M131.5 58C137.301 58 142.406 59.3124 145.953 61.2832C149.602 63.3105 151 65.6324 151 67.5C151 69.3676 149.602 71.6895 145.953 73.7168C142.406 75.6876 137.301 77 131.5 77C125.699 77 120.594 75.6876 117.047 73.7168C113.398 71.6895 112 69.3676 112 67.5C112 65.6324 113.398 63.3105 117.047 61.2832C120.594 59.3124 125.699 58 131.5 58Z" fill="#147416" stroke="black" stroke-width="6"/>
<path d="M216.78 53.9926C180.795 43.1822 142.999 66.6131 128.599 79.6799C141.952 90.7227 170.731 106.545 179.02 81.4914C189.382 50.1746 261.763 67.5057 216.78 53.9926Z" fill="#147416" stroke="black" stroke-width="6" stroke-linecap="round"/>
<path d="M43.5013 45.4518C80.4326 38.5289 115.523 65.8457 128.452 80.3694C114 89.9298 83.7021 102.602 78.1237 76.8096C71.1507 44.5686 -2.66294 54.1055 43.5013 45.4518Z" fill="#147416" stroke="black" stroke-width="6" stroke-linecap="round"/>
<path d="M217.03 96.6163C189.964 70.5533 145.637 74.1186 126.857 79.1591C133.687 95.0841 152.052 122.311 170.876 103.816C194.405 80.6975 250.862 129.195 217.03 96.6163Z" fill="#147416" stroke="black" stroke-width="6" stroke-linecap="round"/>
<path d="M36.261 88.5322C65.8953 65.4311 109.609 73.5954 127.761 80.5652C119.31 95.6921 98.2078 120.857 81.4136 100.501C60.4209 75.0573 -0.781944 117.408 36.261 88.5322Z" fill="#147416" stroke="black" stroke-width="6" stroke-linecap="round"/>
<path d="M150.386 7C124.856 32.4248 120.257 59.4676 124.282 75.7073C126.061 82.8824 131.717 79.7117 131.678 72.3195C131.524 42.8593 150.231 21.6215 163 13.5708L150.386 7Z" fill="#147416" stroke="black" stroke-width="6" stroke-linecap="round"/>
<mask id="path-17-inside-1_8_2" fill="white">
<ellipse cx="9.62683" cy="5.78811" rx="9.62683" ry="5.78811" transform="matrix(0.866419 0.499318 -0.744913 0.667161 154.623 0)"/>
</mask>
<ellipse cx="9.62683" cy="5.78811" rx="9.62683" ry="5.78811" transform="matrix(0.866419 0.499318 -0.744913 0.667161 154.623 0)" fill="#147416"/>
<path d="M166.993 13.4753L161.795 10.4794C162.786 9.59139 163.676 9.90002 162.653 9.82362C161.785 9.75876 160.332 9.40375 158.81 8.5271L154.341 12.5301L149.871 16.533C152.957 18.3111 156.639 19.4951 160.35 19.7724C163.907 20.0381 168.819 19.4919 172.192 16.4712L166.993 13.4753ZM154.341 12.5301L158.81 8.5271C157.289 7.65044 156.491 6.70799 156.215 6.11318C155.889 5.41256 156.502 5.9695 155.51 6.85751L150.312 3.8616L145.113 0.865693C141.74 3.88641 142.064 7.4502 143.197 9.88695C144.379 12.4295 146.786 14.7549 149.871 16.533L154.341 12.5301ZM150.312 3.8616L155.51 6.85751C154.519 7.74553 153.629 7.4369 154.652 7.5133C155.52 7.57816 156.974 7.93317 158.495 8.80982L162.964 4.80686L167.434 0.803889C164.348 -0.974209 160.666 -2.15818 156.955 -2.43543C153.398 -2.70115 148.486 -2.15503 145.113 0.865693L150.312 3.8616ZM162.964 4.80686L158.495 8.80982C160.016 9.68648 160.814 10.6289 161.09 11.2237C161.416 11.9244 160.803 11.3674 161.795 10.4794L166.993 13.4753L172.192 16.4712C175.565 13.4505 175.241 9.88672 174.108 7.44997C172.927 4.90741 170.519 2.58199 167.434 0.803889L162.964 4.80686Z" fill="black" mask="url(#path-17-inside-1_8_2)"/>
</svg>
